<svg width="240" height="240" viewBox="0 0 240 240" fill="none" xmlns="http://www.w3.org/2000/svg">
<g filter="url(#filter0_f_174_38)">
<circle cx="120" cy="120" r="90" fill="#FFCE31" fill-opacity="0.1"/>
</g>
<g filter="url(#filter1_f_174_38)">
<circle cx="119.5" cy="111.5" r="58.5" fill="#E0E34C" fill-opacity="0.2"/>
</g>
<path d="M113.75 160.625C113.75 164.063 116.562 166.875 120 166.875C123.438 166.875 126.25 164.063 126.25 160.625H113.75Z" fill="#616466"/>
<path d="M108.906 145H130.938C132.188 138.281 136.406 131.719 140.781 124.844C145.937 116.875 151.25 108.594 151.25 100.625C151.25 85.4688 137.188 73.125 120 73.125C102.812 73.125 88.75 85.4688 88.75 100.625C88.75 108.594 94.0625 116.875 99.0625 124.844C103.438 131.719 107.656 138.281 108.906 145Z" fill="#FFCE31"/>
<path d="M111.25 122.5C111.406 123.437 111.719 124.375 111.875 125.313C112.344 127.031 112.656 128.594 113.125 130.312C114.531 136.25 115.781 141.25 116.875 145.156H117.812C117.031 141.25 115.937 136.094 114.531 130.156C114.219 128.594 113.75 126.875 113.437 125.156C113.281 124.375 113.125 123.438 112.812 122.656C114.062 122.344 117.031 121.406 120 118.125C122.969 121.406 125.937 122.344 127.187 122.656C127.031 123.594 126.875 124.375 126.562 125.156C126.25 126.875 125.781 128.594 125.469 130.156C124.062 136.094 122.969 141.25 122.187 145.156H123.125C124.062 141.25 125.469 136.25 126.875 130.312C127.187 128.75 127.656 127.031 128.125 125.313C128.281 124.375 128.594 123.437 128.75 122.5C130 122.344 131.094 122.031 131.875 121.25C132.812 120.312 133.281 119.219 132.969 117.969C132.812 117.344 132.5 116.563 131.562 116.406C131.094 116.25 130.781 116.25 130.312 116.406C129.844 116.563 129.531 116.875 129.375 117.031C128.594 117.969 128.281 118.906 127.969 119.844L127.5 121.25C127.5 121.25 126.25 121.406 123.281 119.375C121.719 118.281 121.25 117.5 120.781 117.031C121.25 116.406 121.719 115.937 122.187 115.156C122.344 114.687 122.5 114.375 122.656 113.75C122.656 113.281 122.656 112.656 122.344 112.187C122.031 111.719 121.719 111.25 120.937 110.938C120.625 110.781 120.312 110.781 120 110.781C119.687 110.781 119.375 110.781 119.062 110.938C118.437 111.25 117.969 111.719 117.656 112.187C117.344 112.656 117.344 113.281 117.344 113.75C117.344 114.219 117.5 114.687 117.812 115.156C118.125 115.937 118.594 116.562 119.219 117.031C118.75 117.5 118.281 118.281 116.719 119.375C113.906 121.25 112.5 121.25 112.5 121.25L112.031 119.844C111.719 118.906 111.406 117.969 110.625 117.031C110.469 116.875 110.156 116.563 109.687 116.406C109.219 116.25 108.75 116.25 108.437 116.406C107.5 116.719 107.187 117.5 107.031 117.969C106.875 119.219 107.344 120.312 108.125 121.25C109.062 122.031 110.156 122.344 111.25 122.5ZM129.375 120.156C129.687 119.375 130 118.438 130.625 117.969C130.781 117.813 130.937 117.812 130.937 117.812H131.25C131.406 117.812 131.562 117.969 131.719 118.437C131.875 119.062 131.562 120 130.937 120.469C130.469 120.781 129.844 121.094 129.219 121.25C129.219 120.781 129.219 120.469 129.375 120.156ZM119.062 112.656C119.375 112.344 119.687 112.031 120 112.031C120.312 112.031 120.625 112.187 120.937 112.656C121.25 113.125 121.094 113.75 120.781 114.375C120.625 114.844 120.312 115.313 120 115.625C119.687 115.156 119.375 114.844 119.219 114.375C118.906 113.906 118.75 113.281 119.062 112.656ZM108.437 118.125C108.437 117.812 108.594 117.656 108.906 117.5H109.219C109.219 117.5 109.375 117.656 109.531 117.656C110 118.125 110.469 119.062 110.781 119.844C110.937 120.156 110.937 120.469 111.094 120.781C110.469 120.625 109.844 120.469 109.375 120C108.75 119.687 108.437 118.906 108.437 118.125Z" fill="#C79127"/>
<path d="M108.906 148.125H131.25V150.937H108.906V148.125ZM110.469 153.75H129.688V156.563H110.469V153.75Z" fill="#94989B"/>
<path d="M110.469 150.938H129.688V153.75H110.469V150.938Z" fill="#616466"/>
<path d="M131.25 148.125L110.469 153.75V156.719L131.25 150.937V148.125ZM112.031 159.531H128.125V162.344H112.031V159.531Z" fill="#94989B"/>
<path d="M112.031 156.719H128.125V159.531H112.031V156.719Z" fill="#616466"/>
<path d="M129.688 153.75L112.031 159.531V162.5L129.688 156.719V153.75Z" fill="#94989B"/>
<defs>
<filter id="filter0_f_174_38" x="0" y="0" width="240" height="240" filterUnits="userSpaceOnUse" color-interpolation-filters="sRGB">
<feFlood flood-opacity="0" result="BackgroundImageFix"/>
<feBlend mode="normal" in="SourceGraphic" in2="BackgroundImageFix" result="shape"/>
<feGaussianBlur stdDeviation="15" result="effect1_foregroundBlur_174_38"/>
</filter>
<filter id="filter1_f_174_38" x="31" y="23" width="177" height="177" filterUnits="userSpaceOnUse" color-interpolation-filters="sRGB">
<feFlood flood-opacity="0" result="BackgroundImageFix"/>
<feBlend mode="normal" in="SourceGraphic" in2="BackgroundImageFix" result="shape"/>
<feGaussianBlur stdDeviation="15" result="effect1_foregroundBlur_174_38"/>
</filter>
</defs>
</svg>
