<svg width="100" height="100" viewBox="0 0 100 100" fill="none" xmlns="http://www.w3.org/2000/svg">
<path d="M43.75 90.625C43.75 94.0625 46.5625 96.875 50 96.875C53.4375 96.875 56.25 94.0625 56.25 90.625H43.75Z" fill="#616466"/>
<path d="M38.9062 75H60.9375C62.1875 68.2812 66.4062 61.7187 70.7812 54.8437C75.9375 46.875 81.25 38.5938 81.25 30.625C81.25 15.4688 67.1875 3.125 50 3.125C32.8125 3.125 18.75 15.4688 18.75 30.625C18.75 38.5938 24.0625 46.875 29.0625 54.8437C33.4375 61.7187 37.6562 68.2812 38.9062 75Z" fill="#CCCCCC"/>
<path d="M41.2499 52.5C41.4062 53.4375 41.7187 54.375 41.8749 55.3125C42.3437 57.0313 42.6562 58.5937 43.1249 60.3125C44.5312 66.25 45.7812 71.25 46.8749 75.1562H47.8124C47.0312 71.25 45.9374 66.0937 44.5312 60.1562C44.2187 58.5937 43.7499 56.875 43.4374 55.1562C43.2812 54.375 43.1249 53.4375 42.8124 52.6563C44.0624 52.3438 47.0312 51.4062 49.9999 48.125C52.9687 51.4062 55.9374 52.3438 57.1874 52.6563C57.0312 53.5938 56.8749 54.375 56.5624 55.1562C56.2499 56.875 55.7812 58.5937 55.4687 60.1562C54.0624 66.0937 52.9687 71.25 52.1874 75.1562H53.1249C54.0624 71.25 55.4687 66.25 56.8749 60.3125C57.1874 58.75 57.6562 57.0313 58.1249 55.3125C58.2812 54.375 58.5937 53.4375 58.7499 52.5C59.9999 52.3437 61.0937 52.0312 61.8749 51.25C62.8124 50.3125 63.2812 49.2188 62.9687 47.9688C62.8124 47.3438 62.4999 46.5625 61.5624 46.4063C61.0937 46.25 60.7812 46.25 60.3124 46.4063C59.8437 46.5625 59.5312 46.875 59.3749 47.0312C58.5937 47.9688 58.2812 48.9062 57.9687 49.8437L57.4999 51.25C57.4999 51.25 56.2499 51.4062 53.2812 49.375C51.7187 48.2813 51.2499 47.5 50.7812 47.0312C51.2499 46.4062 51.7187 45.9375 52.1874 45.1562C52.3437 44.6875 52.4999 44.375 52.6562 43.75C52.6562 43.2812 52.6562 42.6562 52.3437 42.1875C52.0312 41.7187 51.7187 41.25 50.9374 40.9375C50.6249 40.7813 50.3124 40.7812 49.9999 40.7812C49.6874 40.7812 49.3749 40.7813 49.0624 40.9375C48.4374 41.25 47.9687 41.7187 47.6562 42.1875C47.3437 42.6562 47.3437 43.2812 47.3437 43.75C47.3437 44.2187 47.4999 44.6875 47.8124 45.1562C48.1249 45.9375 48.5937 46.5625 49.2187 47.0312C48.7499 47.5 48.2812 48.2813 46.7187 49.375C43.9062 51.25 42.4999 51.25 42.4999 51.25L42.0312 49.8437C41.7187 48.9062 41.4062 47.9688 40.6249 47.0312C40.4687 46.875 40.1562 46.5625 39.6874 46.4063C39.2187 46.25 38.7499 46.25 38.4374 46.4063C37.4999 46.7188 37.1874 47.5 37.0312 47.9688C36.8749 49.2188 37.3437 50.3125 38.1249 51.25C39.0624 52.0312 40.1562 52.3437 41.2499 52.5ZM59.3749 50.1562C59.6874 49.375 59.9999 48.4375 60.6249 47.9688C60.7812 47.8125 60.9374 47.8125 60.9374 47.8125H61.2499C61.4062 47.8125 61.5624 47.9687 61.7187 48.4375C61.8749 49.0625 61.5624 50 60.9374 50.4687C60.4687 50.7812 59.8437 51.0937 59.2187 51.25C59.2187 50.7812 59.2187 50.4687 59.3749 50.1562ZM49.0624 42.6562C49.3749 42.3437 49.6874 42.0312 49.9999 42.0312C50.3124 42.0312 50.6249 42.1875 50.9374 42.6562C51.2499 43.125 51.0937 43.75 50.7812 44.375C50.6249 44.8437 50.3124 45.3125 49.9999 45.625C49.6874 45.1563 49.3749 44.8437 49.2187 44.375C48.9062 43.9062 48.7499 43.2812 49.0624 42.6562ZM38.4374 48.125C38.4374 47.8125 38.5937 47.6562 38.9062 47.5H39.2187C39.2187 47.5 39.3749 47.6562 39.5312 47.6562C39.9999 48.125 40.4687 49.0625 40.7812 49.8437C40.9374 50.1562 40.9374 50.4687 41.0937 50.7812C40.4687 50.625 39.8437 50.4687 39.3749 50C38.7499 49.6875 38.4374 48.9062 38.4374 48.125Z" fill="black"/>
<path d="M38.9062 78.125H61.25V80.9375H38.9062V78.125ZM40.4687 83.75H59.6875V86.5625H40.4687V83.75Z" fill="#94989B"/>
<path d="M40.4688 80.9375H59.6875V83.75H40.4688V80.9375Z" fill="#616466"/>
<path d="M61.25 78.125L40.4688 83.75V86.7188L61.25 80.9375V78.125ZM42.0312 89.5312H58.125V92.3437H42.0312V89.5312Z" fill="#94989B"/>
<path d="M42.0312 86.7188H58.125V89.5312H42.0312V86.7188Z" fill="#616466"/>
<path d="M59.6875 83.75L42.0312 89.5313V92.5L59.6875 86.7188V83.75Z" fill="#94989B"/>
</svg>
