<svg width="70" height="70" viewBox="0 0 70 70" fill="none" xmlns="http://www.w3.org/2000/svg">
<g clip-path="url(#clip0_180_95)">
<path d="M17.3609 34.7863C15.7106 32.1527 15.1741 28.9713 15.8695 25.9421C16.5648 22.9129 18.435 20.2839 21.0687 18.6336C23.7024 16.9833 26.8838 16.4469 29.913 17.1422C32.9422 17.8376 35.5711 19.7078 37.2214 22.3415C37.4415 22.6926 37.513 23.1168 37.4203 23.5207C37.3276 23.9246 37.0782 24.2751 36.727 24.4952C36.3759 24.7152 35.9517 24.7867 35.5478 24.694C35.1439 24.6013 34.7934 24.3519 34.5733 24.0008C33.3631 22.0694 31.4353 20.6979 29.2138 20.188C26.9924 19.6781 24.6594 20.0715 22.728 21.2817C20.7967 22.4919 19.4252 24.4198 18.9152 26.6412C18.4053 28.8627 18.7987 31.1957 20.0089 33.127C20.229 33.4782 20.3005 33.9024 20.2078 34.3063C20.1151 34.7102 19.8657 35.0607 19.5146 35.2807C19.1634 35.5008 18.7392 35.5723 18.3353 35.4796C17.9314 35.3869 17.5809 35.1375 17.3609 34.7863ZM45.0946 27.5495C44.3217 28.0327 43.6824 28.7019 43.2351 29.4961C42.6391 28.9957 41.9433 28.6283 41.194 28.4183C40.4448 28.2083 39.6593 28.1607 38.8902 28.2785C38.121 28.3964 37.3858 28.677 36.7338 29.1017C36.0818 29.5263 35.5279 30.0853 35.1091 30.7411L31.9253 25.6601C31.1551 24.4311 29.9283 23.5583 28.5147 23.2338C27.101 22.9093 25.6164 23.1596 24.3873 23.9298C23.1583 24.6999 22.2855 25.9267 21.961 27.3404C21.6365 28.754 21.8869 30.2387 22.657 31.4677L30.9536 44.7081L29.6856 44.0897C28.4016 43.4146 26.902 43.2773 25.5168 43.7079C24.1315 44.1385 22.974 45.1017 22.299 46.3857C21.6239 47.6698 21.4866 49.1693 21.9171 50.5546C22.3477 51.9399 23.311 53.0974 24.595 53.7724L34.633 59.007C34.8153 59.1171 35.0183 59.1889 35.2294 59.2177C35.4405 59.2465 35.6553 59.2319 35.8606 59.1746C36.0658 59.1174 36.2572 59.0188 36.4229 58.8849C36.5886 58.751 36.7252 58.5846 36.8243 58.3959C36.9233 58.2073 36.9828 58.0004 36.9989 57.7879C37.015 57.5755 36.9876 57.3619 36.9181 57.1605C36.8487 56.9591 36.7388 56.7739 36.5952 56.6165C36.4516 56.4591 36.2774 56.3327 36.0831 56.2451L26.0501 51.0075C25.7724 50.8667 25.5255 50.672 25.3238 50.4348C25.1222 50.1975 24.9698 49.9224 24.8757 49.6256C24.7815 49.3288 24.7474 49.0162 24.7755 48.7061C24.8035 48.396 24.893 48.0945 25.0388 47.8194C25.1846 47.5443 25.3838 47.301 25.6247 47.1037C25.8656 46.9064 26.1434 46.7591 26.4419 46.6703C26.7404 46.5816 27.0535 46.5533 27.3631 46.5869C27.6726 46.6206 27.9724 46.7156 28.2448 46.8664L28.2918 46.89L34.4947 49.9178C34.8 50.0677 35.1458 50.1138 35.4796 50.0493C35.8135 49.9847 36.1172 49.813 36.3446 49.5602C36.5721 49.3074 36.7108 48.9873 36.7399 48.6485C36.7689 48.3097 36.6866 47.9707 36.5055 47.6829L25.3051 29.8084C24.975 29.2817 24.8677 28.6454 25.0068 28.0395C25.1459 27.4337 25.5199 26.9079 26.0467 26.5779C26.5734 26.2478 27.2097 26.1405 27.8155 26.2796C28.4214 26.4186 28.9471 26.7927 29.2772 27.3194L36.3293 38.5737C36.5493 38.9249 36.8999 39.1743 37.3038 39.267C37.7076 39.3597 38.1318 39.2882 38.483 39.0681C38.8341 38.8481 39.0835 38.4976 39.1762 38.0937C39.2689 37.6898 39.1974 37.2656 38.9774 36.9144L37.7329 34.9284C37.4028 34.4016 37.2955 33.7654 37.4346 33.1595C37.5737 32.5537 37.9477 32.0279 38.4744 31.6978C39.0012 31.3678 39.6375 31.2605 40.2433 31.3995C40.8491 31.5386 41.3749 31.9127 41.705 32.4394L43.7791 35.7495C43.9992 36.1006 44.3497 36.35 44.7536 36.4427C45.1575 36.5354 45.5817 36.4639 45.9328 36.2439C46.284 36.0238 46.5334 35.6733 46.6261 35.2694C46.7188 34.8655 46.6472 34.4413 46.4272 34.0902L46.0124 33.4281C45.6823 32.9014 45.575 32.2651 45.7141 31.6593C45.8532 31.0534 46.2272 30.5277 46.7539 30.1976C47.2807 29.8675 47.917 29.7603 48.5228 29.8993C49.1286 30.0384 49.6544 30.4124 49.9845 30.9392L53.718 36.8973C55.9591 40.4739 56.3074 43.6415 56.31 43.6676C56.3499 44.0799 56.552 44.4595 56.8718 44.7229C57.1916 44.9863 57.6029 45.1119 58.0152 45.0721C58.2571 45.0499 58.4903 44.9709 58.6959 44.8416C58.942 44.6876 59.1403 44.4681 59.2687 44.2078C59.397 43.9474 59.4503 43.6564 59.4225 43.3675C59.4081 43.2083 59.0205 39.4706 56.3677 35.237L52.6342 29.2788C52.2528 28.6701 51.7552 28.1425 51.1698 27.7262C50.5845 27.3098 49.9228 27.0129 49.2227 26.8523C48.5225 26.6917 47.7976 26.6706 47.0893 26.7903C46.381 26.9099 45.7032 27.1679 45.0946 27.5495Z" fill="#F4F4FC"/>
</g>
<defs>
<clipPath id="clip0_180_95">
<rect width="50" height="50" fill="white" transform="translate(41.5342 69.3715) rotate(-146.169)"/>
</clipPath>
</defs>
</svg>
