<svg width="117" height="123" viewBox="0 0 117 123" fill="none" xmlns="http://www.w3.org/2000/svg">
<path fill-rule="evenodd" clip-rule="evenodd" d="M22.935 81.9315C12.155 65.25 24.134 43.25 44 43.25C63.866 43.25 75.845 65.25 65.065 81.9315L52.756 101H35.244L22.935 81.9315ZM27.5 104.212L16.005 86.4085C1.67748 64.2325 17.6 35 44 35C70.4 35 86.317 64.2325 71.995 86.4085L60.5 104.212V112C60.5 114.917 59.341 117.715 57.2781 119.778C55.2152 121.841 52.4174 123 49.5 123H38.5C35.5826 123 32.7847 121.841 30.7218 119.778C28.6589 117.715 27.5 114.917 27.5 112V104.212ZM35.75 109.25V112C35.75 112.729 36.0397 113.429 36.5554 113.945C37.0712 114.46 37.7706 114.75 38.5 114.75H49.5C50.2293 114.75 50.9288 114.46 51.4445 113.945C51.9602 113.429 52.25 112.729 52.25 112V109.25H35.75Z" fill="#8EBBFF"/>
<g clip-path="url(#clip0_206_78)">
<path fill-rule="evenodd" clip-rule="evenodd" d="M89.7668 14.3837C93.8513 16.1247 97.3277 19.0382 99.7559 22.7555C102.184 26.4728 103.455 30.8268 103.408 35.2667C103.395 35.547 103.439 35.827 103.537 36.09C103.634 36.353 103.784 36.5936 103.977 36.7975C104.17 37.0013 104.401 37.1643 104.659 37.2766C104.916 37.389 105.193 37.4484 105.473 37.4513C105.754 37.4542 106.032 37.4006 106.292 37.2936C106.551 37.1867 106.786 37.0285 106.983 36.8287C107.18 36.6289 107.335 36.3914 107.438 36.1305C107.541 35.8696 107.591 35.5906 107.584 35.3101C107.621 31.8136 106.969 28.344 105.664 25.0995C104.36 21.8551 102.43 18.8994 99.9829 16.4012C97.5362 13.9031 94.6213 11.9115 91.4047 10.5401C88.188 9.16879 84.7327 8.44462 81.2362 8.40898C80.9589 8.40141 80.6828 8.44914 80.4241 8.5494C80.1655 8.64965 79.9293 8.80042 79.7296 8.9929C79.5298 9.18538 79.3703 9.41573 79.2605 9.67049C79.1507 9.92526 79.0927 10.1993 79.09 10.4768C79.0872 10.7542 79.1397 11.0293 79.2445 11.2862C79.3492 11.5431 79.504 11.7766 79.7 11.973C79.8959 12.1694 80.129 12.3248 80.3856 12.4302C80.6422 12.5356 80.9173 12.5888 81.1947 12.5867C84.1424 12.6169 87.0552 13.2276 89.7668 14.3837ZM91.3421 24.8662C89.9222 23.4165 88.2298 22.2618 86.3621 21.4686C84.4944 20.6753 82.4882 20.2591 80.4591 20.244C79.9048 20.2398 79.3749 20.0156 78.986 19.6207C78.597 19.2258 78.3808 18.6925 78.385 18.1382C78.3892 17.584 78.6134 17.0541 79.0083 16.6651C79.4032 16.2761 79.9365 16.06 80.4908 16.0642C83.0707 16.0836 85.6214 16.6129 87.9961 17.6216C90.3708 18.6303 92.5227 20.0985 94.328 21.9417C96.1333 23.785 97.5565 25.9669 98.5155 28.3621C99.4746 30.7572 99.9508 33.3184 99.9166 35.8982C99.9093 36.4524 99.6821 36.9811 99.285 37.3678C98.8879 37.7545 98.3534 37.9677 97.7992 37.9603C97.2449 37.953 96.7163 37.7258 96.3296 37.3287C95.9428 36.9316 95.7297 36.3972 95.737 35.8429C95.7641 33.8139 95.3897 31.7996 94.6354 29.9158C93.8812 28.032 92.7619 26.3159 91.3421 24.8662ZM83.5827 28.6446C84.9237 29.2059 86.0642 30.1586 86.8553 31.3782C87.6463 32.5978 88.0511 34.0277 88.0168 35.481C88.0037 36.0351 88.2113 36.5718 88.594 36.9729C88.9766 37.374 89.5029 37.6067 90.0571 37.6198C90.6112 37.6329 91.1479 37.4253 91.549 37.0427C91.9501 36.66 92.1828 36.1337 92.1959 35.5796C92.2319 34.0569 91.9626 32.5424 91.4037 31.1255C90.8449 29.7086 90.0079 28.418 88.9421 27.3298C87.8764 26.2417 86.6035 25.378 85.1985 24.7898C83.7935 24.2017 82.285 23.9009 80.7618 23.9052C80.2075 23.9063 79.6763 24.1274 79.285 24.5201C78.8938 24.9128 78.6746 25.4449 78.6756 25.9992C78.6766 26.5535 78.8978 27.0848 79.2905 27.476C79.6832 27.8672 80.2153 28.0865 80.7696 28.0854C81.7349 28.0837 82.6922 28.2729 83.5807 28.6465L83.5827 28.6446ZM76.0929 33.5939C76.9332 32.7709 78.066 32.3154 79.2421 32.3276C80.4183 32.3399 81.5414 32.8188 82.3644 33.6591C83.1874 34.4994 83.6429 35.6322 83.6307 36.8084C83.6184 37.9845 83.1395 39.1076 82.2992 39.9306C81.4589 40.7536 80.3261 41.2091 79.1499 41.1969C77.9738 41.1847 76.8507 40.7057 76.0277 39.8654C75.2047 39.0251 74.7492 37.8923 74.7614 36.7162C74.7736 35.54 75.2526 34.4169 76.0929 33.5939Z" fill="#8EBBFF"/>
</g>
<defs>
<clipPath id="clip0_206_78">
<rect width="39" height="39" fill="white" transform="translate(88.8624) rotate(45.5957)"/>
</clipPath>
</defs>
</svg>
