<svg width="312" height="53" viewBox="0 0 312 53" fill="none" xmlns="http://www.w3.org/2000/svg">
<g filter="url(#filter0_d_80_8)">
<rect x="4" width="304" height="45" rx="10" fill="#2F3855"/>
<path d="M61.1832 28H59.706L63.9787 16.3636H65.4332L69.706 28H68.2287L64.7514 18.2045H64.6605L61.1832 28ZM61.7287 23.4545H67.6832V24.7045H61.7287V23.4545ZM71.5185 28V16.3636H72.8594V20.6591H72.973C73.0715 20.5076 73.2079 20.3144 73.3821 20.0795C73.5601 19.8409 73.8139 19.6288 74.1435 19.4432C74.4768 19.2538 74.9276 19.1591 75.4957 19.1591C76.2306 19.1591 76.8783 19.3428 77.4389 19.7102C77.9995 20.0777 78.437 20.5985 78.7514 21.2727C79.0658 21.947 79.223 22.7424 79.223 23.6591C79.223 24.5833 79.0658 25.3845 78.7514 26.0625C78.437 26.7367 78.0014 27.2595 77.4446 27.6307C76.8878 27.9981 76.2457 28.1818 75.5185 28.1818C74.9579 28.1818 74.509 28.089 74.1719 27.9034C73.8348 27.714 73.5753 27.5 73.3935 27.2614C73.2116 27.0189 73.0715 26.8182 72.973 26.6591H72.8139V28H71.5185ZM72.8366 23.6364C72.8366 24.2955 72.9332 24.8769 73.1264 25.3807C73.3196 25.8807 73.6018 26.2727 73.973 26.5568C74.3442 26.8371 74.7988 26.9773 75.3366 26.9773C75.8973 26.9773 76.3651 26.8295 76.7401 26.5341C77.1188 26.2348 77.4029 25.8333 77.5923 25.3295C77.7855 24.822 77.8821 24.2576 77.8821 23.6364C77.8821 23.0227 77.7874 22.4697 77.598 21.9773C77.4124 21.4811 77.1302 21.089 76.7514 20.8011C76.3764 20.5095 75.9048 20.3636 75.3366 20.3636C74.7912 20.3636 74.3329 20.5019 73.9616 20.7784C73.5904 21.0511 73.3101 21.4337 73.1207 21.9261C72.9313 22.4148 72.8366 22.9848 72.8366 23.6364ZM84.8196 28.1818C84.0317 28.1818 83.3404 27.9943 82.7457 27.6193C82.1548 27.2443 81.6927 26.7197 81.3594 26.0455C81.0298 25.3712 80.8651 24.5833 80.8651 23.6818C80.8651 22.7727 81.0298 21.9792 81.3594 21.3011C81.6927 20.6231 82.1548 20.0966 82.7457 19.7216C83.3404 19.3466 84.0317 19.1591 84.8196 19.1591C85.6075 19.1591 86.2969 19.3466 86.8878 19.7216C87.4825 20.0966 87.9446 20.6231 88.2741 21.3011C88.6075 21.9792 88.7741 22.7727 88.7741 23.6818C88.7741 24.5833 88.6075 25.3712 88.2741 26.0455C87.9446 26.7197 87.4825 27.2443 86.8878 27.6193C86.2969 27.9943 85.6075 28.1818 84.8196 28.1818ZM84.8196 26.9773C85.4181 26.9773 85.9105 26.8239 86.2969 26.517C86.6832 26.2102 86.9692 25.8068 87.1548 25.3068C87.3404 24.8068 87.4332 24.2652 87.4332 23.6818C87.4332 23.0985 87.3404 22.5549 87.1548 22.0511C86.9692 21.5473 86.6832 21.1402 86.2969 20.8295C85.9105 20.5189 85.4181 20.3636 84.8196 20.3636C84.2211 20.3636 83.7287 20.5189 83.3423 20.8295C82.956 21.1402 82.67 21.5473 82.4844 22.0511C82.2988 22.5549 82.206 23.0985 82.206 23.6818C82.206 24.2652 82.2988 24.8068 82.4844 25.3068C82.67 25.8068 82.956 26.2102 83.3423 26.517C83.7287 26.8239 84.2211 26.9773 84.8196 26.9773ZM96.321 24.4318V19.2727H97.6619V28H96.321V26.5227H96.2301C96.0256 26.9659 95.7074 27.3428 95.2756 27.6534C94.8438 27.9602 94.2983 28.1136 93.6392 28.1136C93.0938 28.1136 92.6089 27.9943 92.1847 27.7557C91.7604 27.5133 91.4271 27.1496 91.1847 26.6648C90.9422 26.1761 90.821 25.5606 90.821 24.8182V19.2727H92.1619V24.7273C92.1619 25.3636 92.34 25.8712 92.696 26.25C93.0559 26.6288 93.5142 26.8182 94.071 26.8182C94.4044 26.8182 94.7434 26.733 95.0881 26.5625C95.4366 26.392 95.7282 26.1307 95.9631 25.7784C96.2017 25.4261 96.321 24.9773 96.321 24.4318ZM103.913 19.2727V20.4091H99.3906V19.2727H103.913ZM100.709 17.1818H102.05V25.5C102.05 25.8788 102.105 26.1629 102.214 26.3523C102.328 26.5379 102.472 26.6629 102.646 26.7273C102.824 26.7879 103.012 26.8182 103.209 26.8182C103.357 26.8182 103.478 26.8106 103.572 26.7955C103.667 26.7765 103.743 26.7614 103.8 26.75L104.072 27.9545C103.982 27.9886 103.855 28.0227 103.692 28.0568C103.529 28.0947 103.322 28.1136 103.072 28.1136C102.694 28.1136 102.322 28.0322 101.959 27.8693C101.599 27.7064 101.3 27.4583 101.061 27.125C100.826 26.7917 100.709 26.3712 100.709 25.8636V17.1818Z" fill="#F4F4FC"/>
<path d="M277.375 15.2083L284.667 22.5L277.375 29.7917" stroke="#F4F4FC" stroke-width="2" stroke-linecap="round" stroke-linejoin="round"/>
<path d="M31.5 21.4583V26.6667M31.5 31.875C30.2689 31.875 29.0498 31.6325 27.9123 31.1614C26.7749 30.6902 25.7414 29.9997 24.8709 29.1291C24.0003 28.2586 23.3098 27.2251 22.8386 26.0877C22.3675 24.9502 22.125 23.7311 22.125 22.5C22.125 21.2689 22.3675 20.0498 22.8386 18.9123C23.3098 17.7749 24.0003 16.7414 24.8709 15.8709C25.7414 15.0003 26.7749 14.3098 27.9123 13.8386C29.0498 13.3675 30.2689 13.125 31.5 13.125C33.9864 13.125 36.371 14.1127 38.1291 15.8709C39.8873 17.629 40.875 20.0136 40.875 22.5C40.875 24.9864 39.8873 27.371 38.1291 29.1291C36.371 30.8873 33.9864 31.875 31.5 31.875ZM31.5521 18.3333V18.4375H31.4479V18.3333H31.5521Z" stroke="#F4F4FC" stroke-width="2" stroke-linecap="round" stroke-linejoin="round"/>
</g>
<defs>
<filter id="filter0_d_80_8" x="0" y="0" width="312" height="53" filterUnits="userSpaceOnUse" color-interpolation-filters="sRGB">
<feFlood flood-opacity="0" result="BackgroundImageFix"/>
<feColorMatrix in="SourceAlpha" type="matrix" values="0 0 0 0 0 0 0 0 0 0 0 0 0 0 0 0 0 0 127 0" result="hardAlpha"/>
<feOffset dy="4"/>
<feGaussianBlur stdDeviation="2"/>
<feComposite in2="hardAlpha" operator="out"/>
<feColorMatrix type="matrix" values="0 0 0 0 0 0 0 0 0 0 0 0 0 0 0 0 0 0 0.25 0"/>
<feBlend mode="normal" in2="BackgroundImageFix" result="effect1_dropShadow_80_8"/>
<feBlend mode="normal" in="SourceGraphic" in2="effect1_dropShadow_80_8" result="shape"/>
</filter>
</defs>
</svg>
