<svg width="25" height="110" viewBox="0 0 25 110" fill="none" xmlns="http://www.w3.org/2000/svg">
<path d="M0 15C0 6.71573 6.71573 0 15 0H25V110H15C6.71573 110 0 103.284 0 95V15Z" fill="#8EBBFF"/>
<path d="M20 87.625V90.767H9.81818V87.4858C9.81818 86.4981 10.022 85.6529 10.4297 84.9503C10.834 84.2476 11.4157 83.709 12.1747 83.3345C12.9304 82.96 13.8352 82.7727 14.8892 82.7727C15.9498 82.7727 16.8629 82.9616 17.6286 83.3395C18.3909 83.7173 18.9775 84.2675 19.3885 84.9901C19.7962 85.7126 20 86.5909 20 87.625ZM18.9062 89.5341V87.7045C18.9062 86.8627 18.7438 86.165 18.419 85.6115C18.0942 85.058 17.6319 84.6454 17.032 84.3736C16.4321 84.1018 15.7178 83.9659 14.8892 83.9659C14.0672 83.9659 13.3596 84.1001 12.7663 84.3686C12.1697 84.6371 11.7124 85.0381 11.3942 85.5717C11.0727 86.1054 10.9119 86.7699 10.9119 87.5653V89.5341H18.9062ZM20 80.8636H12.3636V79.6903H20V80.8636ZM11.0909 80.267C11.0909 80.4957 11.013 80.6929 10.8572 80.8587C10.7015 81.0211 10.5142 81.1023 10.2955 81.1023C10.0767 81.1023 9.88944 81.0211 9.73366 80.8587C9.57789 80.6929 9.5 80.4957 9.5 80.267C9.5 80.0384 9.57789 79.8428 9.73366 79.6804C9.88944 79.5147 10.0767 79.4318 10.2955 79.4318C10.5142 79.4318 10.7015 79.5147 10.8572 79.6804C11.013 79.8428 11.0909 80.0384 11.0909 80.267ZM14.0739 72.1323L14.3722 73.1863C14.1965 73.2525 14.0258 73.3503 13.8601 73.4796C13.6911 73.6055 13.5518 73.7779 13.4425 73.9966C13.3331 74.2154 13.2784 74.4954 13.2784 74.8368C13.2784 75.3042 13.3861 75.6936 13.6016 76.0051C13.8137 76.3134 14.0838 76.4675 14.4119 76.4675C14.7036 76.4675 14.9339 76.3614 15.103 76.1493C15.272 75.9372 15.4129 75.6058 15.5256 75.155L15.804 74.0215C15.9697 73.3387 16.2232 72.83 16.5646 72.4952C16.9027 72.1605 17.3385 71.9931 17.8722 71.9931C18.3097 71.9931 18.7008 72.119 19.0455 72.3709C19.3902 72.6195 19.6619 72.9675 19.8608 73.415C20.0597 73.8624 20.1591 74.3828 20.1591 74.976C20.1591 75.7549 19.9901 76.3996 19.652 76.91C19.3139 77.4204 18.8201 77.7435 18.1705 77.8794L17.892 76.7658C18.303 76.6597 18.6113 76.4592 18.8168 76.1642C19.0223 75.8659 19.125 75.4765 19.125 74.9959C19.125 74.449 19.009 74.0149 18.777 73.6934C18.5417 73.3685 18.2599 73.2061 17.9318 73.2061C17.6667 73.2061 17.4446 73.2989 17.2656 73.4846C17.0833 73.6702 16.9474 73.9552 16.858 74.3397L16.5597 75.6124C16.3939 76.3117 16.1371 76.8255 15.7891 77.1536C15.4377 77.4784 14.9986 77.6408 14.4716 77.6408C14.0407 77.6408 13.6596 77.5198 13.3281 77.2779C12.9967 77.0326 12.7365 76.6995 12.5476 76.2786C12.3587 75.8543 12.2642 75.3738 12.2642 74.8368C12.2642 74.0811 12.4299 73.4879 12.7614 73.057C13.0928 72.6228 13.5303 72.3146 14.0739 72.1323ZM20.1591 67.1246C20.1591 67.8406 19.9901 68.457 19.652 68.9741C19.3139 69.4911 18.8482 69.8888 18.255 70.1673C17.6617 70.4457 16.9839 70.5849 16.2216 70.5849C15.446 70.5849 14.7616 70.4424 14.1683 70.1573C13.5717 69.869 13.1061 69.4679 12.7713 68.9542C12.4332 68.4371 12.2642 67.8339 12.2642 67.1445C12.2642 66.6076 12.3636 66.1237 12.5625 65.6928C12.7614 65.262 13.0398 64.909 13.3977 64.6339C13.7557 64.3588 14.1733 64.1881 14.6506 64.1218V65.2951C14.3026 65.3846 13.9943 65.5835 13.7259 65.8917C13.4541 66.1966 13.3182 66.6076 13.3182 67.1246C13.3182 67.582 13.4375 67.9831 13.6761 68.3278C13.9115 68.6692 14.2446 68.936 14.6754 69.1282C15.103 69.3171 15.6051 69.4116 16.1818 69.4116C16.7718 69.4116 17.2855 69.3188 17.723 69.1332C18.1605 68.9442 18.5002 68.6791 18.7422 68.3377C18.9841 67.993 19.1051 67.5887 19.1051 67.1246C19.1051 66.8197 19.0521 66.543 18.946 66.2944C18.84 66.0458 18.6875 65.8353 18.4886 65.663C18.2898 65.4906 18.0511 65.368 17.7727 65.2951V64.1218C18.2235 64.1881 18.6295 64.3522 18.9908 64.614C19.3487 64.8725 19.6338 65.2156 19.8459 65.6431C20.0547 66.0674 20.1591 66.5612 20.1591 67.1246ZM20.1591 59.3043C20.1591 59.9937 19.995 60.5986 19.6669 61.119C19.3388 61.636 18.8797 62.0404 18.2898 62.332C17.6998 62.6204 17.0104 62.7646 16.2216 62.7646C15.4261 62.7646 14.7318 62.6204 14.1385 62.332C13.5452 62.0404 13.0845 61.636 12.7564 61.119C12.4283 60.5986 12.2642 59.9937 12.2642 59.3043C12.2642 58.6149 12.4283 58.0117 12.7564 57.4947C13.0845 56.9743 13.5452 56.57 14.1385 56.2816C14.7318 55.9899 15.4261 55.8441 16.2216 55.8441C17.0104 55.8441 17.6998 55.9899 18.2898 56.2816C18.8797 56.57 19.3388 56.9743 19.6669 57.4947C19.995 58.0117 20.1591 58.6149 20.1591 59.3043ZM19.1051 59.3043C19.1051 58.7807 18.9709 58.3498 18.7024 58.0117C18.4339 57.6737 18.081 57.4234 17.6435 57.261C17.206 57.0986 16.732 57.0174 16.2216 57.0174C15.7112 57.0174 15.2356 57.0986 14.7947 57.261C14.3539 57.4234 13.9976 57.6737 13.7259 58.0117C13.4541 58.3498 13.3182 58.7807 13.3182 59.3043C13.3182 59.828 13.4541 60.2589 13.7259 60.5969C13.9976 60.935 14.3539 61.1853 14.7947 61.3477C15.2356 61.5101 15.7112 61.5913 16.2216 61.5913C16.732 61.5913 17.206 61.5101 17.6435 61.3477C18.081 61.1853 18.4339 60.935 18.7024 60.5969C18.9709 60.2589 19.1051 59.828 19.1051 59.3043ZM15.4063 52.8798H20V54.0531H12.3636V52.9196H13.5568V52.8201C13.169 52.6412 12.8575 52.3694 12.6222 52.0048C12.3835 51.6402 12.2642 51.1696 12.2642 50.5929C12.2642 50.0758 12.3703 49.6234 12.5824 49.2356C12.7912 48.8478 13.1094 48.5462 13.5369 48.3308C13.9612 48.1154 14.4981 48.0076 15.1477 48.0076H20L20 49.1809H15.2273C14.6274 49.1809 14.16 49.3367 13.8253 49.6483C13.4872 49.9598 13.3182 50.3874 13.3182 50.9309C13.3182 51.3055 13.3994 51.6402 13.5618 51.9352C13.7242 52.2269 13.9612 52.4572 14.2727 52.6262C14.5843 52.7953 14.9621 52.8798 15.4063 52.8798ZM15.4063 44.6903H20V45.8636H12.3636V44.7301H13.5568V44.6307C13.169 44.4517 12.8575 44.1799 12.6222 43.8153C12.3835 43.4508 12.2642 42.9801 12.2642 42.4034C12.2642 41.8864 12.3703 41.4339 12.5824 41.0462C12.7912 40.6584 13.1094 40.3568 13.5369 40.1413C13.9612 39.9259 14.4981 39.8182 15.1477 39.8182H20V40.9915H15.2273C14.6274 40.9915 14.16 41.1473 13.8253 41.4588C13.4872 41.7704 13.3182 42.1979 13.3182 42.7415C13.3182 43.116 13.3994 43.4508 13.5618 43.7457C13.7242 44.0374 13.9612 44.2678 14.2727 44.4368C14.5843 44.6058 14.9621 44.6903 15.4063 44.6903ZM20.1591 34.4725C20.1591 35.2083 19.9967 35.843 19.6719 36.3766C19.3438 36.9069 18.8864 37.3162 18.2997 37.6046C17.7098 37.8896 17.0237 38.0321 16.2415 38.0321C15.4593 38.0321 14.7699 37.8896 14.1733 37.6046C13.5734 37.3162 13.1061 36.9152 12.7713 36.4015C12.4332 35.8844 12.2642 35.2812 12.2642 34.5918C12.2642 34.1941 12.3305 33.8013 12.4631 33.4135C12.5956 33.0257 12.8111 32.6728 13.1094 32.3546C13.4044 32.0364 13.7955 31.7828 14.2827 31.5939C14.7699 31.405 15.3698 31.3105 16.0824 31.3105H16.5795V37.1969H15.5653V32.5037C15.1345 32.5037 14.75 32.5899 14.4119 32.7623C14.0739 32.9313 13.8071 33.1732 13.6115 33.4881C13.416 33.7997 13.3182 34.1676 13.3182 34.5918C13.3182 35.0591 13.4342 35.4635 13.6662 35.8049C13.8949 36.1429 14.1932 36.4031 14.5611 36.5854C14.929 36.7677 15.3234 36.8588 15.7443 36.8588H16.4205C16.9972 36.8588 17.486 36.7594 17.8871 36.5605C18.2848 36.3584 18.5881 36.0783 18.7969 35.7203C19.0024 35.3624 19.1051 34.9464 19.1051 34.4725C19.1051 34.1642 19.062 33.8858 18.9759 33.6373C18.8864 33.3854 18.7538 33.1683 18.5781 32.986C18.3991 32.8037 18.1771 32.6628 17.9119 32.5634L18.2301 31.4299C18.6146 31.5492 18.9527 31.7497 19.2443 32.0314C19.5327 32.3132 19.758 32.6612 19.9205 33.0755C20.0795 33.4898 20.1591 33.9554 20.1591 34.4725ZM20.1591 26.4235C20.1591 27.1394 19.9901 27.7559 19.652 28.2729C19.3139 28.79 18.8482 29.1877 18.255 29.4661C17.6617 29.7445 16.9839 29.8837 16.2216 29.8837C15.446 29.8837 14.7616 29.7412 14.1683 29.4561C13.5717 29.1678 13.1061 28.7667 12.7713 28.253C12.4332 27.736 12.2642 27.1328 12.2642 26.4434C12.2642 25.9064 12.3636 25.4225 12.5625 24.9917C12.7614 24.5608 13.0398 24.2078 13.3977 23.9327C13.7557 23.6576 14.1733 23.4869 14.6506 23.4206V24.5939C14.3026 24.6834 13.9943 24.8823 13.7259 25.1905C13.4541 25.4954 13.3182 25.9064 13.3182 26.4235C13.3182 26.8809 13.4375 27.2819 13.6761 27.6266C13.9115 27.968 14.2446 28.2348 14.6754 28.427C15.103 28.6159 15.6051 28.7104 16.1818 28.7104C16.7718 28.7104 17.2855 28.6176 17.723 28.432C18.1605 28.2431 18.5002 27.9779 18.7422 27.6365C18.9841 27.2918 19.1051 26.8875 19.1051 26.4235C19.1051 26.1185 19.0521 25.8418 18.946 25.5932C18.84 25.3446 18.6875 25.1342 18.4886 24.9618C18.2898 24.7895 18.0511 24.6668 17.7727 24.5939V23.4206C18.2235 23.4869 18.6295 23.651 18.9908 23.9128C19.3487 24.1713 19.6338 24.5144 19.8459 24.9419C20.0547 25.3662 20.1591 25.86 20.1591 26.4235ZM12.3636 18.3844H13.358V22.3418H12.3636V18.3844ZM10.5341 21.1884V20.0151H17.8125C18.1439 20.0151 18.3925 19.967 18.5582 19.8709C18.7206 19.7715 18.83 19.6455 18.8864 19.4931C18.9394 19.3373 18.9659 19.1732 18.9659 19.0009C18.9659 18.8716 18.9593 18.7656 18.946 18.6827C18.9295 18.5998 18.9162 18.5336 18.9063 18.4838L19.9602 18.2452C19.9901 18.3248 20.0199 18.4358 20.0497 18.5783C20.0829 18.7208 20.0994 18.9015 20.0994 19.1202C20.0994 19.4516 20.0282 19.7765 19.8857 20.0946C19.7431 20.4095 19.526 20.6713 19.2344 20.8801C18.9427 21.0856 18.5748 21.1884 18.1307 21.1884H10.5341Z" fill="black"/>
</svg>
