<svg width="308" height="53" viewBox="0 0 308 53" fill="none" xmlns="http://www.w3.org/2000/svg">
<g filter="url(#filter0_d_87_180)">
<rect x="4" width="300" height="45" rx="10" fill="#2F3855"/>
<path d="M65.0732 28V16.3636H66.4822V26.75H71.8913V28H65.0732ZM76.4595 28.2045C75.9065 28.2045 75.4046 28.1004 74.9538 27.892C74.5031 27.6799 74.1451 27.375 73.88 26.9773C73.6148 26.5758 73.4822 26.0909 73.4822 25.5227C73.4822 25.0227 73.5807 24.6174 73.7777 24.3068C73.9747 23.9924 74.2379 23.7462 74.5675 23.5682C74.897 23.3902 75.2607 23.2576 75.6584 23.1705C76.0599 23.0795 76.4633 23.0076 76.8686 22.9545C77.3989 22.8864 77.8288 22.8352 78.1584 22.8011C78.4917 22.7633 78.7341 22.7008 78.8857 22.6136C79.041 22.5265 79.1186 22.375 79.1186 22.1591V22.1136C79.1186 21.553 78.9652 21.1174 78.6584 20.8068C78.3554 20.4962 77.8951 20.3409 77.2777 20.3409C76.6375 20.3409 76.1357 20.4811 75.772 20.7614C75.4084 21.0417 75.1527 21.3409 75.005 21.6591L73.7322 21.2045C73.9595 20.6742 74.2625 20.2614 74.6413 19.9659C75.0239 19.6667 75.4406 19.4583 75.8913 19.3409C76.3459 19.2197 76.7929 19.1591 77.2322 19.1591C77.5125 19.1591 77.8345 19.1932 78.1982 19.2614C78.5656 19.3258 78.9197 19.4602 79.2607 19.6648C79.6054 19.8693 79.8913 20.178 80.1186 20.5909C80.3459 21.0038 80.4595 21.5568 80.4595 22.25V28H79.1186V26.8182H79.0504C78.9595 27.0076 78.808 27.2102 78.5959 27.4261C78.3838 27.642 78.1016 27.8258 77.7493 27.9773C77.397 28.1288 76.9671 28.2045 76.4595 28.2045ZM76.6641 27C77.1944 27 77.6413 26.8958 78.005 26.6875C78.3724 26.4792 78.6489 26.2102 78.8345 25.8807C79.0239 25.5511 79.1186 25.2045 79.1186 24.8409V23.6136C79.0618 23.6818 78.9368 23.7443 78.7436 23.8011C78.5542 23.8542 78.3345 23.9015 78.0845 23.9432C77.8383 23.9811 77.5978 24.0152 77.3629 24.0455C77.1319 24.072 76.9444 24.0947 76.8004 24.1136C76.4519 24.1591 76.1262 24.233 75.8232 24.3352C75.5239 24.4337 75.2815 24.5833 75.0959 24.7841C74.9141 24.9811 74.8232 25.25 74.8232 25.5909C74.8232 26.0568 74.9955 26.4091 75.3402 26.6477C75.6887 26.8826 76.13 27 76.6641 27ZM82.907 28V19.2727H84.2024V20.6364H84.3161C84.4979 20.1705 84.7914 19.8087 85.1967 19.5511C85.602 19.2898 86.0888 19.1591 86.657 19.1591C87.2327 19.1591 87.7119 19.2898 88.0945 19.5511C88.4808 19.8087 88.782 20.1705 88.9979 20.6364H89.0888C89.3123 20.1856 89.6475 19.8277 90.0945 19.5625C90.5414 19.2936 91.0774 19.1591 91.7024 19.1591C92.4827 19.1591 93.121 19.4034 93.6172 19.892C94.1134 20.3769 94.3615 21.1326 94.3615 22.1591V28H93.0206V22.1591C93.0206 21.5152 92.8445 21.0549 92.4922 20.7784C92.1399 20.5019 91.7251 20.3636 91.2479 20.3636C90.6342 20.3636 90.1589 20.5492 89.8217 20.9205C89.4846 21.2879 89.3161 21.7538 89.3161 22.3182V28H87.9524V22.0227C87.9524 21.5265 87.7914 21.1269 87.4695 20.8239C87.1475 20.517 86.7327 20.3636 86.2251 20.3636C85.8767 20.3636 85.5509 20.4564 85.2479 20.642C84.9486 20.8277 84.7062 21.0852 84.5206 21.4148C84.3388 21.7405 84.2479 22.1174 84.2479 22.5455V28H82.907ZM96.8132 31.2727V19.2727H98.1087V20.6591H98.2678C98.3662 20.5076 98.5026 20.3144 98.6768 20.0795C98.8549 19.8409 99.1087 19.6288 99.4382 19.4432C99.7715 19.2538 100.222 19.1591 100.79 19.1591C101.525 19.1591 102.173 19.3428 102.734 19.7102C103.294 20.0777 103.732 20.5985 104.046 21.2727C104.361 21.947 104.518 22.7424 104.518 23.6591C104.518 24.5833 104.361 25.3845 104.046 26.0625C103.732 26.7367 103.296 27.2595 102.739 27.6307C102.183 27.9981 101.54 28.1818 100.813 28.1818C100.253 28.1818 99.8037 28.089 99.4666 27.9034C99.1295 27.714 98.87 27.5 98.6882 27.2614C98.5064 27.0189 98.3662 26.8182 98.2678 26.6591H98.1541V31.2727H96.8132ZM98.1314 23.6364C98.1314 24.2955 98.228 24.8769 98.4212 25.3807C98.6143 25.8807 98.8965 26.2727 99.2678 26.5568C99.639 26.8371 100.094 26.9773 100.631 26.9773C101.192 26.9773 101.66 26.8295 102.035 26.5341C102.414 26.2348 102.698 25.8333 102.887 25.3295C103.08 24.822 103.177 24.2576 103.177 23.6364C103.177 23.0227 103.082 22.4697 102.893 21.9773C102.707 21.4811 102.425 21.089 102.046 20.8011C101.671 20.5095 101.2 20.3636 100.631 20.3636C100.086 20.3636 99.6276 20.5019 99.2564 20.7784C98.8852 21.0511 98.6049 21.4337 98.4155 21.9261C98.2261 22.4148 98.1314 22.9848 98.1314 23.6364Z" fill="#F4F4FC"/>
<path d="M277.725 15.2083L284.921 22.5L277.725 29.7916" stroke="#F4F4FC" stroke-width="2" stroke-linecap="round" stroke-linejoin="round"/>
<path d="M33.5025 30.0375V31.6125C33.5025 32.0427 33.7389 32.3958 34.0298 32.3958H36.1403C36.4332 32.3958 36.6686 32.0416 36.6686 31.6125V30.0375M34.2838 19.0583C33.6768 19.0586 33.0948 19.3031 32.6657 19.7381C32.2366 20.1731 31.9955 20.763 31.9955 21.3781M42.6226 22.4H44.5079M40.725 16.1375L42.0623 14.7823M41.7529 27.7083L43.0903 29.0625M35.0856 12.476V14.0208M28.1366 14.7812L29.4647 16.1375M27.1086 29.0625L28.4367 27.7083M27.5486 22.4H25.6643M40.4844 23.0104C40.1925 25.4739 38.6002 26.4583 37.9125 27.1729C37.2237 27.8896 37.3471 28.0323 37.3933 29.0833C37.4011 29.2133 37.3824 29.3436 37.3386 29.4661C37.2947 29.5885 37.2266 29.7006 37.1384 29.7954C37.0501 29.8901 36.9437 29.9656 36.8256 30.0171C36.7075 30.0686 36.5803 30.095 36.4517 30.0948H33.7194C33.5908 30.0948 33.4636 30.0683 33.3456 30.0168C33.2275 29.9652 33.121 29.8898 33.0328 29.7951C32.9445 29.7004 32.8763 29.5884 32.8322 29.466C32.7882 29.3436 32.7693 29.2134 32.7768 29.0833C32.7768 28.0521 32.8713 27.8125 32.2587 27.1729C31.4774 26.3812 29.6394 25.2635 29.6394 22.1896C29.6347 21.426 29.7862 20.6698 30.0842 19.9685C30.3823 19.2672 30.8205 18.6361 31.3712 18.1149C31.9219 17.5938 32.5732 17.1939 33.2839 16.9404C33.9947 16.687 34.7496 16.5855 35.5011 16.6424C36.2525 16.6992 36.9841 16.9132 37.6499 17.2709C38.3156 17.6285 38.901 18.122 39.3692 18.7203C39.8374 19.3186 40.1782 20.0086 40.3701 20.747C40.5621 21.4854 40.601 22.256 40.4844 23.0104Z" stroke="#F4F4FC" stroke-width="1.5" stroke-linecap="round" stroke-linejoin="round"/>
</g>
<defs>
<filter id="filter0_d_87_180" x="0" y="0" width="308" height="53" filterUnits="userSpaceOnUse" color-interpolation-filters="sRGB">
<feFlood flood-opacity="0" result="BackgroundImageFix"/>
<feColorMatrix in="SourceAlpha" type="matrix" values="0 0 0 0 0 0 0 0 0 0 0 0 0 0 0 0 0 0 127 0" result="hardAlpha"/>
<feOffset dy="4"/>
<feGaussianBlur stdDeviation="2"/>
<feComposite in2="hardAlpha" operator="out"/>
<feColorMatrix type="matrix" values="0 0 0 0 0 0 0 0 0 0 0 0 0 0 0 0 0 0 0.25 0"/>
<feBlend mode="normal" in2="BackgroundImageFix" result="effect1_dropShadow_87_180"/>
<feBlend mode="normal" in="SourceGraphic" in2="effect1_dropShadow_87_180" result="shape"/>
</filter>
</defs>
</svg>
