<svg width="308" height="53" viewBox="0 0 308 53" fill="none" xmlns="http://www.w3.org/2000/svg">
<g filter="url(#filter0_d_87_200)">
<rect x="4" width="300" height="45" rx="10" fill="#2F3855"/>
<path d="M69.7741 22.1818C69.7741 23.4091 69.5526 24.4697 69.1094 25.3636C68.6662 26.2576 68.0582 26.947 67.2855 27.4318C66.5128 27.9167 65.6302 28.1591 64.6378 28.1591C63.6454 28.1591 62.7628 27.9167 61.9901 27.4318C61.2173 26.947 60.6094 26.2576 60.1662 25.3636C59.723 24.4697 59.5014 23.4091 59.5014 22.1818C59.5014 20.9545 59.723 19.8939 60.1662 19C60.6094 18.1061 61.2173 17.4167 61.9901 16.9318C62.7628 16.447 63.6454 16.2045 64.6378 16.2045C65.6302 16.2045 66.5128 16.447 67.2855 16.9318C68.0582 17.4167 68.6662 18.1061 69.1094 19C69.5526 19.8939 69.7741 20.9545 69.7741 22.1818ZM68.4105 22.1818C68.4105 21.1742 68.242 20.3239 67.9048 19.6307C67.5715 18.9375 67.1188 18.4129 66.5469 18.0568C65.9787 17.7008 65.3423 17.5227 64.6378 17.5227C63.9332 17.5227 63.295 17.7008 62.723 18.0568C62.1548 18.4129 61.7022 18.9375 61.3651 19.6307C61.0317 20.3239 60.8651 21.1742 60.8651 22.1818C60.8651 23.1894 61.0317 24.0398 61.3651 24.733C61.7022 25.4261 62.1548 25.9508 62.723 26.3068C63.295 26.6629 63.9332 26.8409 64.6378 26.8409C65.3423 26.8409 65.9787 26.6629 66.5469 26.3068C67.1188 25.9508 67.5715 25.4261 67.9048 24.733C68.242 24.0398 68.4105 23.1894 68.4105 22.1818ZM75.7571 19.2727V20.4091H71.2344V19.2727H75.7571ZM72.5526 17.1818H73.8935V25.5C73.8935 25.8788 73.9484 26.1629 74.0582 26.3523C74.1719 26.5379 74.3158 26.6629 74.4901 26.7273C74.6681 26.7879 74.8556 26.8182 75.0526 26.8182C75.2003 26.8182 75.3215 26.8106 75.4162 26.7955C75.5109 26.7765 75.5866 26.7614 75.6435 26.75L75.9162 27.9545C75.8253 27.9886 75.6984 28.0227 75.5355 28.0568C75.3726 28.0947 75.1662 28.1136 74.9162 28.1136C74.5374 28.1136 74.1662 28.0322 73.8026 27.8693C73.4427 27.7064 73.1435 27.4583 72.9048 27.125C72.67 26.7917 72.5526 26.3712 72.5526 25.8636V17.1818ZM79.3026 22.75V28H77.9616V16.3636H79.3026V20.6364H79.4162C79.6207 20.1856 79.9276 19.8277 80.3366 19.5625C80.7495 19.2936 81.2988 19.1591 81.9844 19.1591C82.5791 19.1591 83.0999 19.2784 83.5469 19.517C83.9938 19.7519 84.3404 20.1136 84.5866 20.6023C84.8366 21.0871 84.9616 21.7045 84.9616 22.4545V28H83.6207V22.5455C83.6207 21.8523 83.4408 21.3163 83.081 20.9375C82.7249 20.5549 82.2306 20.3636 81.598 20.3636C81.1586 20.3636 80.7647 20.4564 80.4162 20.642C80.0715 20.8277 79.7988 21.0985 79.598 21.4545C79.401 21.8106 79.3026 22.2424 79.3026 22.75ZM91.0739 28.1818C90.233 28.1818 89.5076 27.9962 88.8977 27.625C88.2917 27.25 87.8239 26.7273 87.4943 26.0568C87.1686 25.3826 87.0057 24.5985 87.0057 23.7045C87.0057 22.8106 87.1686 22.0227 87.4943 21.3409C87.8239 20.6553 88.2822 20.1212 88.8693 19.7386C89.4602 19.3523 90.1496 19.1591 90.9375 19.1591C91.392 19.1591 91.8409 19.2348 92.2841 19.3864C92.7273 19.5379 93.1307 19.7841 93.4943 20.125C93.858 20.4621 94.1477 20.9091 94.3636 21.4659C94.5795 22.0227 94.6875 22.7083 94.6875 23.5227V24.0909H87.9602V22.9318H93.3239C93.3239 22.4394 93.2254 22 93.0284 21.6136C92.8352 21.2273 92.5587 20.9223 92.1989 20.6989C91.8428 20.4754 91.4223 20.3636 90.9375 20.3636C90.4034 20.3636 89.9413 20.4962 89.5511 20.7614C89.1648 21.0227 88.8674 21.3636 88.6591 21.7841C88.4508 22.2045 88.3466 22.6553 88.3466 23.1364V23.9091C88.3466 24.5682 88.4602 25.1269 88.6875 25.5852C88.9186 26.0398 89.2386 26.3864 89.6477 26.625C90.0568 26.8598 90.5322 26.9773 91.0739 26.9773C91.4261 26.9773 91.7443 26.928 92.0284 26.8295C92.3163 26.7273 92.5644 26.5758 92.7727 26.375C92.9811 26.1705 93.142 25.9167 93.2557 25.6136L94.5511 25.9773C94.4148 26.4167 94.1856 26.803 93.8636 27.1364C93.5417 27.4659 93.1439 27.7235 92.6705 27.9091C92.197 28.0909 91.6648 28.1818 91.0739 28.1818ZM96.7273 28V19.2727H98.0227V20.5909H98.1136C98.2727 20.1591 98.5606 19.8087 98.9773 19.5398C99.3939 19.2708 99.8636 19.1364 100.386 19.1364C100.485 19.1364 100.608 19.1383 100.756 19.142C100.903 19.1458 101.015 19.1515 101.091 19.1591V20.5227C101.045 20.5114 100.941 20.4943 100.778 20.4716C100.619 20.4451 100.451 20.4318 100.273 20.4318C99.8485 20.4318 99.4697 20.5208 99.1364 20.6989C98.8068 20.8731 98.5455 21.1155 98.3523 21.4261C98.1629 21.733 98.0682 22.0833 98.0682 22.4773V28H96.7273ZM110.953 28H107.362V16.3636H111.112C112.241 16.3636 113.207 16.5966 114.01 17.0625C114.813 17.5246 115.429 18.1894 115.857 19.0568C116.285 19.9205 116.499 20.9545 116.499 22.1591C116.499 23.3712 116.283 24.4148 115.851 25.2898C115.419 26.161 114.79 26.8314 113.964 27.3011C113.139 27.767 112.135 28 110.953 28ZM108.771 26.75H110.862C111.824 26.75 112.622 26.5644 113.254 26.1932C113.887 25.822 114.358 25.2936 114.669 24.608C114.98 23.9223 115.135 23.1061 115.135 22.1591C115.135 21.2197 114.982 20.411 114.675 19.733C114.368 19.0511 113.91 18.5284 113.3 18.1648C112.69 17.7973 111.93 17.6136 111.021 17.6136H108.771V26.75ZM122.339 28.1818C121.499 28.1818 120.773 27.9962 120.163 27.625C119.557 27.25 119.089 26.7273 118.76 26.0568C118.434 25.3826 118.271 24.5985 118.271 23.7045C118.271 22.8106 118.434 22.0227 118.76 21.3409C119.089 20.6553 119.548 20.1212 120.135 19.7386C120.726 19.3523 121.415 19.1591 122.203 19.1591C122.658 19.1591 123.107 19.2348 123.55 19.3864C123.993 19.5379 124.396 19.7841 124.76 20.125C125.124 20.4621 125.413 20.9091 125.629 21.4659C125.845 22.0227 125.953 22.7083 125.953 23.5227V24.0909H119.226V22.9318H124.589C124.589 22.4394 124.491 22 124.294 21.6136C124.101 21.2273 123.824 20.9223 123.464 20.6989C123.108 20.4754 122.688 20.3636 122.203 20.3636C121.669 20.3636 121.207 20.4962 120.817 20.7614C120.43 21.0227 120.133 21.3636 119.925 21.7841C119.716 22.2045 119.612 22.6553 119.612 23.1364V23.9091C119.612 24.5682 119.726 25.1269 119.953 25.5852C120.184 26.0398 120.504 26.3864 120.913 26.625C121.322 26.8598 121.798 26.9773 122.339 26.9773C122.692 26.9773 123.01 26.928 123.294 26.8295C123.582 26.7273 123.83 26.5758 124.038 26.375C124.247 26.1705 124.408 25.9167 124.521 25.6136L125.817 25.9773C125.68 26.4167 125.451 26.803 125.129 27.1364C124.807 27.4659 124.41 27.7235 123.936 27.9091C123.463 28.0909 122.93 28.1818 122.339 28.1818ZM134.864 19.2727L131.636 28H130.273L127.045 19.2727H128.5L130.909 26.2273H131L133.409 19.2727H134.864ZM136.634 28V19.2727H137.974V28H136.634ZM137.315 17.8182C137.054 17.8182 136.829 17.7292 136.639 17.5511C136.454 17.3731 136.361 17.1591 136.361 16.9091C136.361 16.6591 136.454 16.4451 136.639 16.267C136.829 16.089 137.054 16 137.315 16C137.577 16 137.8 16.089 137.986 16.267C138.175 16.4451 138.27 16.6591 138.27 16.9091C138.27 17.1591 138.175 17.3731 137.986 17.5511C137.8 17.7292 137.577 17.8182 137.315 17.8182ZM143.976 28.1818C143.158 28.1818 142.453 27.9886 141.862 27.6023C141.271 27.2159 140.817 26.6837 140.499 26.0057C140.18 25.3277 140.021 24.553 140.021 23.6818C140.021 22.7955 140.184 22.0133 140.51 21.3352C140.839 20.6534 141.298 20.1212 141.885 19.7386C142.476 19.3523 143.165 19.1591 143.953 19.1591C144.567 19.1591 145.12 19.2727 145.612 19.5C146.105 19.7273 146.508 20.0455 146.822 20.4545C147.137 20.8636 147.332 21.3409 147.408 21.8864H146.067C145.964 21.4886 145.737 21.1364 145.385 20.8295C145.036 20.5189 144.567 20.3636 143.976 20.3636C143.453 20.3636 142.995 20.5 142.601 20.7727C142.211 21.0417 141.906 21.4223 141.686 21.9148C141.47 22.4034 141.362 22.9773 141.362 23.6364C141.362 24.3106 141.468 24.8977 141.68 25.3977C141.896 25.8977 142.199 26.286 142.589 26.5625C142.983 26.839 143.446 26.9773 143.976 26.9773C144.324 26.9773 144.641 26.9167 144.925 26.7955C145.209 26.6742 145.449 26.5 145.646 26.2727C145.843 26.0455 145.983 25.7727 146.067 25.4545H147.408C147.332 25.9697 147.144 26.4337 146.845 26.8466C146.55 27.2557 146.158 27.5814 145.669 27.8239C145.184 28.0625 144.62 28.1818 143.976 28.1818ZM153.027 28.1818C152.186 28.1818 151.461 27.9962 150.851 27.625C150.245 27.25 149.777 26.7273 149.447 26.0568C149.122 25.3826 148.959 24.5985 148.959 23.7045C148.959 22.8106 149.122 22.0227 149.447 21.3409C149.777 20.6553 150.235 20.1212 150.822 19.7386C151.413 19.3523 152.103 19.1591 152.891 19.1591C153.345 19.1591 153.794 19.2348 154.237 19.3864C154.68 19.5379 155.084 19.7841 155.447 20.125C155.811 20.4621 156.101 20.9091 156.317 21.4659C156.533 22.0227 156.641 22.7083 156.641 23.5227V24.0909H149.913V22.9318H155.277C155.277 22.4394 155.179 22 154.982 21.6136C154.788 21.2273 154.512 20.9223 154.152 20.6989C153.796 20.4754 153.375 20.3636 152.891 20.3636C152.357 20.3636 151.894 20.4962 151.504 20.7614C151.118 21.0227 150.821 21.3636 150.612 21.7841C150.404 22.2045 150.3 22.6553 150.3 23.1364V23.9091C150.3 24.5682 150.413 25.1269 150.641 25.5852C150.872 26.0398 151.192 26.3864 151.601 26.625C152.01 26.8598 152.485 26.9773 153.027 26.9773C153.379 26.9773 153.697 26.928 153.982 26.8295C154.269 26.7273 154.518 26.5758 154.726 26.375C154.934 26.1705 155.095 25.9167 155.209 25.6136L156.504 25.9773C156.368 26.4167 156.139 26.803 155.817 27.1364C155.495 27.4659 155.097 27.7235 154.624 27.9091C154.15 28.0909 153.618 28.1818 153.027 28.1818Z" fill="#F4F4FC"/>
<path d="M273.778 15.2083L280.974 22.5L273.778 29.7916" stroke="#F4F4FC" stroke-width="2" stroke-linecap="round" stroke-linejoin="round"/>
<g clip-path="url(#clip0_87_200)">
<path d="M36.2779 14.1667C36.7966 14.1665 37.2962 14.365 37.6765 14.7224C38.0569 15.0798 38.2898 15.5696 38.3287 16.0938L38.3339 16.25V18.3333H39.3618C39.8805 18.3332 40.3801 18.5317 40.7604 18.8891C41.1407 19.2464 41.3737 19.7363 41.4126 20.2604L41.4177 20.4167V29.7917C41.4179 30.3173 41.222 30.8235 40.8693 31.2089C40.5166 31.5943 40.0332 31.8304 39.516 31.8698L39.3618 31.875H35.25C34.9167 31.8751 34.5885 31.793 34.2935 31.6359C33.9985 31.4787 33.7457 31.2512 33.5569 30.9729L33.4696 30.8333H22.9145C22.3958 30.8335 21.8962 30.635 21.5159 30.2776C21.1355 29.9202 20.9026 29.4304 20.8637 28.9062L20.8585 28.75V16.25C20.8584 15.7244 21.0543 15.2182 21.4069 14.8328C21.7596 14.4474 22.243 14.2113 22.7603 14.1719L22.9145 14.1667H36.2779ZM39.3618 20.4167H35.25V29.7917H39.3618V20.4167ZM36.2779 16.25H22.9145V28.75H33.1941V20.4167C33.1941 19.8641 33.4107 19.3342 33.7962 18.9435C34.1818 18.5528 34.7047 18.3333 35.25 18.3333H36.2779V16.25Z" fill="#F4F4FC"/>
</g>
</g>
<defs>
<filter id="filter0_d_87_200" x="0" y="0" width="308" height="53" filterUnits="userSpaceOnUse" color-interpolation-filters="sRGB">
<feFlood flood-opacity="0" result="BackgroundImageFix"/>
<feColorMatrix in="SourceAlpha" type="matrix" values="0 0 0 0 0 0 0 0 0 0 0 0 0 0 0 0 0 0 127 0" result="hardAlpha"/>
<feOffset dy="4"/>
<feGaussianBlur stdDeviation="2"/>
<feComposite in2="hardAlpha" operator="out"/>
<feColorMatrix type="matrix" values="0 0 0 0 0 0 0 0 0 0 0 0 0 0 0 0 0 0 0.25 0"/>
<feBlend mode="normal" in2="BackgroundImageFix" result="effect1_dropShadow_87_200"/>
<feBlend mode="normal" in="SourceGraphic" in2="effect1_dropShadow_87_200" result="shape"/>
</filter>
<clipPath id="clip0_87_200">
<rect width="24.6711" height="25" fill="white" transform="translate(18.8026 10)"/>
</clipPath>
</defs>
</svg>
