<svg width="308" height="53" viewBox="0 0 308 53" fill="none" xmlns="http://www.w3.org/2000/svg">
<g filter="url(#filter0_d_87_208)">
<rect x="4" width="300" height="45" rx="10" fill="#2F3855"/>
<path d="M59.7249 28V16.3636H63.6568C64.5696 16.3636 65.3158 16.5284 65.8954 16.858C66.4787 17.1837 66.9105 17.625 67.1908 18.1818C67.4711 18.7386 67.6113 19.3598 67.6113 20.0455C67.6113 20.7311 67.4711 21.3542 67.1908 21.9148C66.9143 22.4754 66.4863 22.9223 65.9068 23.2557C65.3272 23.5852 64.5848 23.75 63.6795 23.75H60.8613V22.5H63.634C64.259 22.5 64.7609 22.392 65.1397 22.1761C65.5185 21.9602 65.7931 21.6686 65.9636 21.3011C66.1378 20.9299 66.2249 20.5114 66.2249 20.0455C66.2249 19.5795 66.1378 19.1629 65.9636 18.7955C65.7931 18.428 65.5166 18.1402 65.134 17.9318C64.7514 17.7197 64.2439 17.6136 63.6113 17.6136H61.134V28H59.7249ZM69.6994 28V19.2727H70.9948V20.5909H71.0857C71.2448 20.1591 71.5327 19.8087 71.9494 19.5398C72.366 19.2708 72.8357 19.1364 73.3585 19.1364C73.4569 19.1364 73.58 19.1383 73.7278 19.142C73.8755 19.1458 73.9872 19.1515 74.063 19.1591V20.5227C74.0175 20.5114 73.9134 20.4943 73.7505 20.4716C73.5914 20.4451 73.4228 20.4318 73.2448 20.4318C72.8206 20.4318 72.4418 20.5208 72.1085 20.6989C71.7789 20.8731 71.5175 21.1155 71.3244 21.4261C71.135 21.733 71.0403 22.0833 71.0403 22.4773V28H69.6994ZM75.6525 28V19.2727H76.9934V28H75.6525ZM76.3343 17.8182C76.0729 17.8182 75.8476 17.7292 75.6582 17.5511C75.4726 17.3731 75.3798 17.1591 75.3798 16.9091C75.3798 16.6591 75.4726 16.4451 75.6582 16.267C75.8476 16.089 76.0729 16 76.3343 16C76.5957 16 76.8192 16.089 77.0048 16.267C77.1942 16.4451 77.2889 16.6591 77.2889 16.9091C77.2889 17.1591 77.1942 17.3731 77.0048 17.5511C76.8192 17.7292 76.5957 17.8182 76.3343 17.8182ZM80.7903 22.75V28H79.4494V19.2727H80.7448V20.6364H80.8585C81.063 20.1932 81.3736 19.8371 81.7903 19.5682C82.2069 19.2955 82.7448 19.1591 83.4039 19.1591C83.9948 19.1591 84.5119 19.2803 84.955 19.5227C85.3982 19.7614 85.7429 20.125 85.9891 20.6136C86.2353 21.0985 86.3585 21.7121 86.3585 22.4545V28H85.0175V22.5455C85.0175 21.8598 84.8395 21.3258 84.4835 20.9432C84.1274 20.5568 83.6388 20.3636 83.0175 20.3636C82.5895 20.3636 82.2069 20.4564 81.8698 20.642C81.5365 20.8277 81.2732 21.0985 81.08 21.4545C80.8869 21.8106 80.7903 22.2424 80.7903 22.75ZM92.6042 19.2727V20.4091H88.0815V19.2727H92.6042ZM89.3996 17.1818H90.7406V25.5C90.7406 25.8788 90.7955 26.1629 90.9053 26.3523C91.019 26.5379 91.1629 26.6629 91.3371 26.7273C91.5152 26.7879 91.7027 26.8182 91.8996 26.8182C92.0474 26.8182 92.1686 26.8106 92.2633 26.7955C92.358 26.7765 92.4337 26.7614 92.4906 26.75L92.7633 27.9545C92.6724 27.9886 92.5455 28.0227 92.3826 28.0568C92.2197 28.0947 92.0133 28.1136 91.7633 28.1136C91.3845 28.1136 91.0133 28.0322 90.6496 27.8693C90.2898 27.7064 89.9906 27.4583 89.7519 27.125C89.5171 26.7917 89.3996 26.3712 89.3996 25.8636V17.1818ZM98.1866 28.1818C97.3457 28.1818 96.6203 27.9962 96.0104 27.625C95.4044 27.25 94.9366 26.7273 94.607 26.0568C94.2813 25.3826 94.1184 24.5985 94.1184 23.7045C94.1184 22.8106 94.2813 22.0227 94.607 21.3409C94.9366 20.6553 95.3949 20.1212 95.982 19.7386C96.5729 19.3523 97.2623 19.1591 98.0502 19.1591C98.5048 19.1591 98.9536 19.2348 99.3968 19.3864C99.84 19.5379 100.243 19.7841 100.607 20.125C100.971 20.4621 101.26 20.9091 101.476 21.4659C101.692 22.0227 101.8 22.7083 101.8 23.5227V24.0909H95.0729V22.9318H100.437C100.437 22.4394 100.338 22 100.141 21.6136C99.9479 21.2273 99.6714 20.9223 99.3116 20.6989C98.9555 20.4754 98.5351 20.3636 98.0502 20.3636C97.5161 20.3636 97.054 20.4962 96.6639 20.7614C96.2775 21.0227 95.9801 21.3636 95.7718 21.7841C95.5635 22.2045 95.4593 22.6553 95.4593 23.1364V23.9091C95.4593 24.5682 95.5729 25.1269 95.8002 25.5852C96.0313 26.0398 96.3514 26.3864 96.7604 26.625C97.1695 26.8598 97.6449 26.9773 98.1866 26.9773C98.5389 26.9773 98.857 26.928 99.1411 26.8295C99.429 26.7273 99.6771 26.5758 99.8854 26.375C100.094 26.1705 100.255 25.9167 100.368 25.6136L101.664 25.9773C101.527 26.4167 101.298 26.803 100.976 27.1364C100.654 27.4659 100.257 27.7235 99.7832 27.9091C99.3097 28.0909 98.7775 28.1818 98.1866 28.1818ZM103.84 28V19.2727H105.135V20.5909H105.226C105.385 20.1591 105.673 19.8087 106.09 19.5398C106.507 19.2708 106.976 19.1364 107.499 19.1364C107.598 19.1364 107.721 19.1383 107.868 19.142C108.016 19.1458 108.128 19.1515 108.204 19.1591V20.5227C108.158 20.5114 108.054 20.4943 107.891 20.4716C107.732 20.4451 107.563 20.4318 107.385 20.4318C106.961 20.4318 106.582 20.5208 106.249 20.6989C105.92 20.8731 105.658 21.1155 105.465 21.4261C105.276 21.733 105.181 22.0833 105.181 22.4773V28H103.84Z" fill="#F4F4FC"/>
<path d="M273.778 15.2083L280.974 22.5L273.778 29.7916" stroke="#F4F4FC" stroke-width="2" stroke-linecap="round" stroke-linejoin="round"/>
<path d="M25.9983 27.7083V25.625C25.9983 25.0725 26.2149 24.5426 26.6005 24.1519C26.986 23.7612 27.509 23.5417 28.0542 23.5417H34.222C34.7673 23.5417 35.2902 23.7612 35.6758 24.1519C36.0613 24.5426 36.2779 25.0725 36.2779 25.625V27.7083M25.9983 27.7083V29.7917C25.9983 30.3442 26.2149 30.8741 26.6005 31.2648C26.986 31.6555 27.509 31.875 28.0542 31.875H34.222C34.7673 31.875 35.2902 31.6555 35.6758 31.2648C36.0613 30.8741 36.2779 30.3442 36.2779 29.7917V27.7083M25.9983 27.7083H23.9424C23.3971 27.7083 22.8742 27.4888 22.4886 27.0981C22.1031 26.7074 21.8865 26.1775 21.8865 25.625V19.375C21.8865 18.8225 22.1031 18.2926 22.4886 17.9019C22.8742 17.5112 23.3971 17.2917 23.9424 17.2917H24.9704M36.2779 27.7083H38.3338C38.8791 27.7083 39.402 27.4888 39.7876 27.0981C40.1732 26.7074 40.3898 26.1775 40.3898 25.625V19.375C40.3898 18.8225 40.1732 18.2926 39.7876 17.9019C39.402 17.5112 38.8791 17.2917 38.3338 17.2917H37.3059M24.9704 17.2917V15.2083C24.9704 14.6558 25.187 14.1259 25.5725 13.7352C25.9581 13.3445 26.481 13.125 27.0263 13.125H35.25C35.7952 13.125 36.3182 13.3445 36.7037 13.7352C37.0893 14.1259 37.3059 14.6558 37.3059 15.2083V17.2917M24.9704 17.2917H37.3059M25.9983 20.4167H27.0263" stroke="#F4F4FC" stroke-width="2" stroke-linecap="round" stroke-linejoin="round"/>
</g>
<defs>
<filter id="filter0_d_87_208" x="0" y="0" width="308" height="53" filterUnits="userSpaceOnUse" color-interpolation-filters="sRGB">
<feFlood flood-opacity="0" result="BackgroundImageFix"/>
<feColorMatrix in="SourceAlpha" type="matrix" values="0 0 0 0 0 0 0 0 0 0 0 0 0 0 0 0 0 0 127 0" result="hardAlpha"/>
<feOffset dy="4"/>
<feGaussianBlur stdDeviation="2"/>
<feComposite in2="hardAlpha" operator="out"/>
<feColorMatrix type="matrix" values="0 0 0 0 0 0 0 0 0 0 0 0 0 0 0 0 0 0 0.25 0"/>
<feBlend mode="normal" in2="BackgroundImageFix" result="effect1_dropShadow_87_208"/>
<feBlend mode="normal" in="SourceGraphic" in2="effect1_dropShadow_87_208" result="shape"/>
</filter>
</defs>
</svg>
