<svg width="312" height="53" viewBox="0 0 312 53" fill="none" xmlns="http://www.w3.org/2000/svg">
<g filter="url(#filter0_d_80_9)">
<rect x="4" width="304" height="45" rx="10" fill="#2F3855"/>
<path d="M67.1634 19.2727C67.0952 18.697 66.8187 18.25 66.3338 17.9318C65.849 17.6136 65.2543 17.4545 64.5497 17.4545C64.0346 17.4545 63.5838 17.5379 63.1974 17.7045C62.8149 17.8712 62.5156 18.1004 62.2997 18.392C62.0876 18.6837 61.9815 19.0152 61.9815 19.3864C61.9815 19.697 62.0554 19.964 62.2031 20.1875C62.3546 20.4072 62.5478 20.5909 62.7827 20.7386C63.0175 20.8826 63.2637 21.0019 63.5213 21.0966C63.7789 21.1875 64.0156 21.2614 64.2315 21.3182L65.4134 21.6364C65.7164 21.7159 66.0535 21.8258 66.4247 21.9659C66.7997 22.1061 67.1577 22.2973 67.4986 22.5398C67.8433 22.7784 68.1274 23.0852 68.3509 23.4602C68.5743 23.8352 68.6861 24.2955 68.6861 24.8409C68.6861 25.4697 68.5213 26.0379 68.1918 26.5455C67.866 27.053 67.3887 27.4564 66.7599 27.7557C66.1349 28.0549 65.3755 28.2045 64.4815 28.2045C63.6482 28.2045 62.9266 28.0701 62.3168 27.8011C61.7107 27.5322 61.2334 27.1572 60.8849 26.6761C60.5402 26.1951 60.3452 25.6364 60.2997 25H61.7543C61.7921 25.4394 61.9399 25.803 62.1974 26.0909C62.4588 26.375 62.7884 26.5871 63.1861 26.7273C63.5876 26.8636 64.0194 26.9318 64.4815 26.9318C65.0194 26.9318 65.5024 26.8447 65.9304 26.6705C66.3584 26.4924 66.6974 26.2462 66.9474 25.9318C67.1974 25.6136 67.3224 25.2424 67.3224 24.8182C67.3224 24.4318 67.2145 24.1174 66.9986 23.875C66.7827 23.6326 66.4986 23.4356 66.1463 23.2841C65.794 23.1326 65.4134 23 65.0043 22.8864L63.5724 22.4773C62.6634 22.2159 61.9437 21.8428 61.4134 21.358C60.883 20.8731 60.6179 20.2386 60.6179 19.4545C60.6179 18.803 60.794 18.2348 61.1463 17.75C61.5024 17.2614 61.9796 16.8826 62.5781 16.6136C63.1804 16.3409 63.8527 16.2045 64.5952 16.2045C65.3452 16.2045 66.0118 16.339 66.5952 16.608C67.1785 16.8731 67.6406 17.2367 67.9815 17.6989C68.3262 18.161 68.508 18.6856 68.527 19.2727H67.1634ZM74.4801 28.1818C73.6392 28.1818 72.9138 27.9962 72.304 27.625C71.6979 27.25 71.2301 26.7273 70.9006 26.0568C70.5748 25.3826 70.4119 24.5985 70.4119 23.7045C70.4119 22.8106 70.5748 22.0227 70.9006 21.3409C71.2301 20.6553 71.6884 20.1212 72.2756 19.7386C72.8665 19.3523 73.5559 19.1591 74.3438 19.1591C74.7983 19.1591 75.2472 19.2348 75.6903 19.3864C76.1335 19.5379 76.5369 19.7841 76.9006 20.125C77.2642 20.4621 77.554 20.9091 77.7699 21.4659C77.9858 22.0227 78.0938 22.7083 78.0938 23.5227V24.0909H71.3665V22.9318H76.7301C76.7301 22.4394 76.6316 22 76.4347 21.6136C76.2415 21.2273 75.965 20.9223 75.6051 20.6989C75.2491 20.4754 74.8286 20.3636 74.3438 20.3636C73.8097 20.3636 73.3475 20.4962 72.9574 20.7614C72.571 21.0227 72.2737 21.3636 72.0653 21.7841C71.857 22.2045 71.7528 22.6553 71.7528 23.1364V23.9091C71.7528 24.5682 71.8665 25.1269 72.0938 25.5852C72.3248 26.0398 72.6449 26.3864 73.054 26.625C73.4631 26.8598 73.9384 26.9773 74.4801 26.9773C74.8324 26.9773 75.1506 26.928 75.4347 26.8295C75.7225 26.7273 75.9706 26.5758 76.179 26.375C76.3873 26.1705 76.5483 25.9167 76.6619 25.6136L77.9574 25.9773C77.821 26.4167 77.5919 26.803 77.2699 27.1364C76.9479 27.4659 76.5502 27.7235 76.0767 27.9091C75.6032 28.0909 75.071 28.1818 74.4801 28.1818ZM83.679 28.1818C82.8608 28.1818 82.1563 27.9886 81.5653 27.6023C80.9744 27.2159 80.5199 26.6837 80.2017 26.0057C79.8835 25.3277 79.7244 24.553 79.7244 23.6818C79.7244 22.7955 79.8873 22.0133 80.2131 21.3352C80.5426 20.6534 81.0009 20.1212 81.5881 19.7386C82.179 19.3523 82.8684 19.1591 83.6562 19.1591C84.2699 19.1591 84.8229 19.2727 85.3153 19.5C85.8078 19.7273 86.2112 20.0455 86.5256 20.4545C86.84 20.8636 87.035 21.3409 87.1108 21.8864H85.7699C85.6676 21.4886 85.4403 21.1364 85.0881 20.8295C84.7396 20.5189 84.2699 20.3636 83.679 20.3636C83.1563 20.3636 82.6979 20.5 82.304 20.7727C81.9138 21.0417 81.6089 21.4223 81.3892 21.9148C81.1733 22.4034 81.0653 22.9773 81.0653 23.6364C81.0653 24.3106 81.1714 24.8977 81.3835 25.3977C81.5994 25.8977 81.9025 26.286 82.2926 26.5625C82.6866 26.839 83.1487 26.9773 83.679 26.9773C84.0275 26.9773 84.3438 26.9167 84.6278 26.7955C84.9119 26.6742 85.1525 26.5 85.3494 26.2727C85.5464 26.0455 85.6866 25.7727 85.7699 25.4545H87.1108C87.035 25.9697 86.8475 26.4337 86.5483 26.8466C86.2528 27.2557 85.8608 27.5814 85.3722 27.8239C84.8873 28.0625 84.3229 28.1818 83.679 28.1818ZM94.571 24.4318V19.2727H95.9119V28H94.571V26.5227H94.4801C94.2756 26.9659 93.9574 27.3428 93.5256 27.6534C93.0938 27.9602 92.5483 28.1136 91.8892 28.1136C91.3438 28.1136 90.8589 27.9943 90.4347 27.7557C90.0104 27.5133 89.6771 27.1496 89.4347 26.6648C89.1922 26.1761 89.071 25.5606 89.071 24.8182V19.2727H90.4119V24.7273C90.4119 25.3636 90.59 25.8712 90.946 26.25C91.3059 26.6288 91.7642 26.8182 92.321 26.8182C92.6544 26.8182 92.9934 26.733 93.3381 26.5625C93.6866 26.392 93.9782 26.1307 94.2131 25.7784C94.4517 25.4261 94.571 24.9773 94.571 24.4318ZM98.3679 28V19.2727H99.6634V20.5909H99.7543C99.9134 20.1591 100.201 19.8087 100.618 19.5398C101.035 19.2708 101.504 19.1364 102.027 19.1364C102.125 19.1364 102.249 19.1383 102.396 19.142C102.544 19.1458 102.656 19.1515 102.732 19.1591V20.5227C102.686 20.5114 102.582 20.4943 102.419 20.4716C102.26 20.4451 102.091 20.4318 101.913 20.4318C101.489 20.4318 101.11 20.5208 100.777 20.6989C100.447 20.8731 100.186 21.1155 99.9929 21.4261C99.8035 21.733 99.7088 22.0833 99.7088 22.4773V28H98.3679ZM104.321 28V19.2727H105.662V28H104.321ZM105.003 17.8182C104.741 17.8182 104.516 17.7292 104.327 17.5511C104.141 17.3731 104.048 17.1591 104.048 16.9091C104.048 16.6591 104.141 16.4451 104.327 16.267C104.516 16.089 104.741 16 105.003 16C105.264 16 105.488 16.089 105.673 16.267C105.863 16.4451 105.957 16.6591 105.957 16.9091C105.957 17.1591 105.863 17.3731 105.673 17.5511C105.488 17.7292 105.264 17.8182 105.003 17.8182ZM111.913 19.2727V20.4091H107.391V19.2727H111.913ZM108.709 17.1818H110.05V25.5C110.05 25.8788 110.105 26.1629 110.214 26.3523C110.328 26.5379 110.472 26.6629 110.646 26.7273C110.824 26.7879 111.012 26.8182 111.209 26.8182C111.357 26.8182 111.478 26.8106 111.572 26.7955C111.667 26.7765 111.743 26.7614 111.8 26.75L112.072 27.9545C111.982 27.9886 111.855 28.0227 111.692 28.0568C111.529 28.0947 111.322 28.1136 111.072 28.1136C110.694 28.1136 110.322 28.0322 109.959 27.8693C109.599 27.7064 109.3 27.4583 109.061 27.125C108.826 26.7917 108.709 26.3712 108.709 25.8636V17.1818ZM114.794 31.2727C114.567 31.2727 114.364 31.2538 114.186 31.2159C114.008 31.1818 113.885 31.1477 113.817 31.1136L114.158 29.9318C114.483 30.0152 114.771 30.0455 115.021 30.0227C115.271 30 115.493 29.8883 115.686 29.6875C115.883 29.4905 116.063 29.1705 116.226 28.7273L116.476 28.0455L113.249 19.2727H114.703L117.112 26.2273H117.203L119.612 19.2727H121.067L117.362 29.2727C117.196 29.7235 116.989 30.0966 116.743 30.392C116.497 30.6913 116.211 30.9129 115.885 31.0568C115.563 31.2008 115.199 31.2727 114.794 31.2727Z" fill="#F4F4FC"/>
<path d="M34.6251 19.375L30.4584 23.5417L28.3751 21.4583M39.8334 20.5885C39.8334 27.4302 34.6584 30.4979 32.4647 31.4906L32.4615 31.4927C32.2313 31.5969 32.1157 31.649 31.8532 31.6938C31.6865 31.7229 31.3136 31.7229 31.148 31.6938C30.9346 31.6581 30.7279 31.5896 30.5355 31.4906C28.3417 30.4979 23.1667 27.4302 23.1667 20.5885V16.4583C23.1667 15.2917 23.1667 14.7083 23.3938 14.2625C23.5938 13.8698 23.9115 13.5521 24.3042 13.3521C24.7501 13.125 25.3334 13.125 26.5001 13.125H36.5001C37.6667 13.125 38.2501 13.125 38.6949 13.3521C39.0876 13.5521 39.4063 13.8698 39.6063 14.2625C39.8334 14.7073 39.8334 15.2906 39.8334 16.4552V20.5885Z" stroke="#F4F4FC" stroke-width="2" stroke-linecap="round" stroke-linejoin="round"/>
<path d="M277.375 15.2083L284.667 22.5L277.375 29.7917" stroke="#F4F4FC" stroke-width="2" stroke-linecap="round" stroke-linejoin="round"/>
</g>
<defs>
<filter id="filter0_d_80_9" x="0" y="0" width="312" height="53" filterUnits="userSpaceOnUse" color-interpolation-filters="sRGB">
<feFlood flood-opacity="0" result="BackgroundImageFix"/>
<feColorMatrix in="SourceAlpha" type="matrix" values="0 0 0 0 0 0 0 0 0 0 0 0 0 0 0 0 0 0 127 0" result="hardAlpha"/>
<feOffset dy="4"/>
<feGaussianBlur stdDeviation="2"/>
<feComposite in2="hardAlpha" operator="out"/>
<feColorMatrix type="matrix" values="0 0 0 0 0 0 0 0 0 0 0 0 0 0 0 0 0 0 0.25 0"/>
<feBlend mode="normal" in2="BackgroundImageFix" result="effect1_dropShadow_80_9"/>
<feBlend mode="normal" in="SourceGraphic" in2="effect1_dropShadow_80_9" result="shape"/>
</filter>
</defs>
</svg>
