<svg width="308" height="53" viewBox="0 0 308 53" fill="none" xmlns="http://www.w3.org/2000/svg">
<g filter="url(#filter0_d_87_173)">
<rect x="4" width="300" height="45" rx="10" fill="#2F3855"/>
<path d="M59.554 17.6136V16.3636H68.2812V17.6136H64.6222V28H63.2131V17.6136H59.554ZM71.6151 22.75V28H70.2741V16.3636H71.6151V20.6364H71.7287C71.9332 20.1856 72.2401 19.8277 72.6491 19.5625C73.062 19.2936 73.6113 19.1591 74.2969 19.1591C74.8916 19.1591 75.4124 19.2784 75.8594 19.517C76.3063 19.7519 76.6529 20.1136 76.8991 20.6023C77.1491 21.0871 77.2741 21.7045 77.2741 22.4545V28H75.9332V22.5455C75.9332 21.8523 75.7533 21.3163 75.3935 20.9375C75.0374 20.5549 74.5431 20.3636 73.9105 20.3636C73.4711 20.3636 73.0772 20.4564 72.7287 20.642C72.384 20.8277 72.1113 21.0985 71.9105 21.4545C71.7135 21.8106 71.6151 22.2424 71.6151 22.75ZM83.3864 28.1818C82.5455 28.1818 81.8201 27.9962 81.2102 27.625C80.6042 27.25 80.1364 26.7273 79.8068 26.0568C79.4811 25.3826 79.3182 24.5985 79.3182 23.7045C79.3182 22.8106 79.4811 22.0227 79.8068 21.3409C80.1364 20.6553 80.5947 20.1212 81.1818 19.7386C81.7727 19.3523 82.4621 19.1591 83.25 19.1591C83.7045 19.1591 84.1534 19.2348 84.5966 19.3864C85.0398 19.5379 85.4432 19.7841 85.8068 20.125C86.1705 20.4621 86.4602 20.9091 86.6761 21.4659C86.892 22.0227 87 22.7083 87 23.5227V24.0909H80.2727V22.9318H85.6364C85.6364 22.4394 85.5379 22 85.3409 21.6136C85.1477 21.2273 84.8712 20.9223 84.5114 20.6989C84.1553 20.4754 83.7348 20.3636 83.25 20.3636C82.7159 20.3636 82.2538 20.4962 81.8636 20.7614C81.4773 21.0227 81.1799 21.3636 80.9716 21.7841C80.7633 22.2045 80.6591 22.6553 80.6591 23.1364V23.9091C80.6591 24.5682 80.7727 25.1269 81 25.5852C81.2311 26.0398 81.5511 26.3864 81.9602 26.625C82.3693 26.8598 82.8447 26.9773 83.3864 26.9773C83.7386 26.9773 84.0568 26.928 84.3409 26.8295C84.6288 26.7273 84.8769 26.5758 85.0852 26.375C85.2936 26.1705 85.4545 25.9167 85.5682 25.6136L86.8636 25.9773C86.7273 26.4167 86.4981 26.803 86.1761 27.1364C85.8542 27.4659 85.4564 27.7235 84.983 27.9091C84.5095 28.0909 83.9773 28.1818 83.3864 28.1818ZM89.0398 28V19.2727H90.3352V20.5909H90.4261C90.5852 20.1591 90.8731 19.8087 91.2898 19.5398C91.7064 19.2708 92.1761 19.1364 92.6989 19.1364C92.7973 19.1364 92.9205 19.1383 93.0682 19.142C93.2159 19.1458 93.3277 19.1515 93.4034 19.1591V20.5227C93.358 20.5114 93.2538 20.4943 93.0909 20.4716C92.9318 20.4451 92.7633 20.4318 92.5852 20.4318C92.161 20.4318 91.7822 20.5208 91.4489 20.6989C91.1193 20.8731 90.858 21.1155 90.6648 21.4261C90.4754 21.733 90.3807 22.0833 90.3807 22.4773V28H89.0398ZM94.9929 28V19.2727H96.2884V20.6364H96.402C96.5838 20.1705 96.8774 19.8087 97.2827 19.5511C97.688 19.2898 98.1747 19.1591 98.7429 19.1591C99.3187 19.1591 99.7978 19.2898 100.18 19.5511C100.567 19.8087 100.868 20.1705 101.084 20.6364H101.175C101.398 20.1856 101.733 19.8277 102.18 19.5625C102.627 19.2936 103.163 19.1591 103.788 19.1591C104.569 19.1591 105.207 19.4034 105.703 19.892C106.199 20.3769 106.447 21.1326 106.447 22.1591V28H105.107V22.1591C105.107 21.5152 104.93 21.0549 104.578 20.7784C104.226 20.5019 103.811 20.3636 103.334 20.3636C102.72 20.3636 102.245 20.5492 101.908 20.9205C101.571 21.2879 101.402 21.7538 101.402 22.3182V28H100.038V22.0227C100.038 21.5265 99.8774 21.1269 99.5554 20.8239C99.2334 20.517 98.8187 20.3636 98.3111 20.3636C97.9626 20.3636 97.6368 20.4564 97.3338 20.642C97.0346 20.8277 96.7921 21.0852 96.6065 21.4148C96.4247 21.7405 96.3338 22.1174 96.3338 22.5455V28H94.9929ZM112.445 28.1818C111.657 28.1818 110.965 27.9943 110.371 27.6193C109.78 27.2443 109.318 26.7197 108.984 26.0455C108.655 25.3712 108.49 24.5833 108.49 23.6818C108.49 22.7727 108.655 21.9792 108.984 21.3011C109.318 20.6231 109.78 20.0966 110.371 19.7216C110.965 19.3466 111.657 19.1591 112.445 19.1591C113.232 19.1591 113.922 19.3466 114.513 19.7216C115.107 20.0966 115.57 20.6231 115.899 21.3011C116.232 21.9792 116.399 22.7727 116.399 23.6818C116.399 24.5833 116.232 25.3712 115.899 26.0455C115.57 26.7197 115.107 27.2443 114.513 27.6193C113.922 27.9943 113.232 28.1818 112.445 28.1818ZM112.445 26.9773C113.043 26.9773 113.536 26.8239 113.922 26.517C114.308 26.2102 114.594 25.8068 114.78 25.3068C114.965 24.8068 115.058 24.2652 115.058 23.6818C115.058 23.0985 114.965 22.5549 114.78 22.0511C114.594 21.5473 114.308 21.1402 113.922 20.8295C113.536 20.5189 113.043 20.3636 112.445 20.3636C111.846 20.3636 111.354 20.5189 110.967 20.8295C110.581 21.1402 110.295 21.5473 110.109 22.0511C109.924 22.5549 109.831 23.0985 109.831 23.6818C109.831 24.2652 109.924 24.8068 110.109 25.3068C110.295 25.8068 110.581 26.2102 110.967 26.517C111.354 26.8239 111.846 26.9773 112.445 26.9773ZM124.628 21.2273L123.423 21.5682C123.348 21.3674 123.236 21.1723 123.088 20.983C122.944 20.7898 122.747 20.6307 122.497 20.5057C122.247 20.3807 121.927 20.3182 121.537 20.3182C121.003 20.3182 120.558 20.4413 120.202 20.6875C119.849 20.9299 119.673 21.2386 119.673 21.6136C119.673 21.947 119.795 22.2102 120.037 22.4034C120.279 22.5966 120.658 22.7576 121.173 22.8864L122.469 23.2045C123.249 23.3939 123.83 23.6837 124.213 24.0739C124.596 24.4602 124.787 24.9583 124.787 25.5682C124.787 26.0682 124.643 26.5152 124.355 26.9091C124.071 27.303 123.673 27.6136 123.162 27.8409C122.651 28.0682 122.056 28.1818 121.378 28.1818C120.488 28.1818 119.751 27.9886 119.168 27.6023C118.584 27.2159 118.215 26.6515 118.06 25.9091L119.332 25.5909C119.454 26.0606 119.683 26.4129 120.02 26.6477C120.361 26.8826 120.806 27 121.355 27C121.98 27 122.476 26.8674 122.844 26.6023C123.215 26.3333 123.401 26.0114 123.401 25.6364C123.401 25.3333 123.295 25.0795 123.082 24.875C122.87 24.6667 122.545 24.5114 122.105 24.4091L120.651 24.0682C119.851 23.8788 119.264 23.5852 118.889 23.1875C118.518 22.786 118.332 22.2841 118.332 21.6818C118.332 21.1894 118.471 20.7538 118.747 20.375C119.027 19.9962 119.408 19.6989 119.889 19.483C120.374 19.267 120.923 19.1591 121.537 19.1591C122.401 19.1591 123.079 19.3485 123.571 19.7273C124.067 20.1061 124.42 20.6061 124.628 21.2273ZM130.601 19.2727V20.4091H126.078V19.2727H130.601ZM127.396 17.1818H128.737V25.5C128.737 25.8788 128.792 26.1629 128.902 26.3523C129.016 26.5379 129.16 26.6629 129.334 26.7273C129.512 26.7879 129.699 26.8182 129.896 26.8182C130.044 26.8182 130.165 26.8106 130.26 26.7955C130.355 26.7765 130.43 26.7614 130.487 26.75L130.76 27.9545C130.669 27.9886 130.542 28.0227 130.379 28.0568C130.216 28.0947 130.01 28.1136 129.76 28.1136C129.381 28.1136 129.01 28.0322 128.646 27.8693C128.286 27.7064 127.987 27.4583 127.749 27.125C127.514 26.7917 127.396 26.3712 127.396 25.8636V17.1818ZM135.186 28.2045C134.633 28.2045 134.131 28.1004 133.68 27.892C133.23 27.6799 132.872 27.375 132.607 26.9773C132.341 26.5758 132.209 26.0909 132.209 25.5227C132.209 25.0227 132.307 24.6174 132.504 24.3068C132.701 23.9924 132.964 23.7462 133.294 23.5682C133.624 23.3902 133.987 23.2576 134.385 23.1705C134.786 23.0795 135.19 23.0076 135.595 22.9545C136.125 22.8864 136.555 22.8352 136.885 22.8011C137.218 22.7633 137.461 22.7008 137.612 22.6136C137.768 22.5265 137.845 22.375 137.845 22.1591V22.1136C137.845 21.553 137.692 21.1174 137.385 20.8068C137.082 20.4962 136.622 20.3409 136.004 20.3409C135.364 20.3409 134.862 20.4811 134.499 20.7614C134.135 21.0417 133.879 21.3409 133.732 21.6591L132.459 21.2045C132.686 20.6742 132.989 20.2614 133.368 19.9659C133.75 19.6667 134.167 19.4583 134.618 19.3409C135.072 19.2197 135.519 19.1591 135.959 19.1591C136.239 19.1591 136.561 19.1932 136.925 19.2614C137.292 19.3258 137.646 19.4602 137.987 19.6648C138.332 19.8693 138.618 20.178 138.845 20.5909C139.072 21.0038 139.186 21.5568 139.186 22.25V28H137.845V26.8182H137.777C137.686 27.0076 137.535 27.2102 137.322 27.4261C137.11 27.642 136.828 27.8258 136.476 27.9773C136.124 28.1288 135.694 28.2045 135.186 28.2045ZM135.391 27C135.921 27 136.368 26.8958 136.732 26.6875C137.099 26.4792 137.375 26.2102 137.561 25.8807C137.75 25.5511 137.845 25.2045 137.845 24.8409V23.6136C137.788 23.6818 137.663 23.7443 137.47 23.8011C137.281 23.8542 137.061 23.9015 136.811 23.9432C136.565 23.9811 136.324 24.0152 136.089 24.0455C135.858 24.072 135.671 24.0947 135.527 24.1136C135.179 24.1591 134.853 24.233 134.55 24.3352C134.25 24.4337 134.008 24.5833 133.822 24.7841C133.641 24.9811 133.55 25.25 133.55 25.5909C133.55 26.0568 133.722 26.4091 134.067 26.6477C134.415 26.8826 134.857 27 135.391 27ZM145.429 19.2727V20.4091H140.906V19.2727H145.429ZM142.224 17.1818H143.565V25.5C143.565 25.8788 143.62 26.1629 143.73 26.3523C143.844 26.5379 143.988 26.6629 144.162 26.7273C144.34 26.7879 144.527 26.8182 144.724 26.8182C144.872 26.8182 144.993 26.8106 145.088 26.7955C145.183 26.7765 145.259 26.7614 145.315 26.75L145.588 27.9545C145.497 27.9886 145.37 28.0227 145.207 28.0568C145.045 28.0947 144.838 28.1136 144.588 28.1136C144.209 28.1136 143.838 28.0322 143.474 27.8693C143.115 27.7064 142.815 27.4583 142.577 27.125C142.342 26.7917 142.224 26.3712 142.224 25.8636V17.1818Z" fill="#F4F4FC"/>
<path d="M273.778 15.2083L280.974 22.5L273.778 29.7916" stroke="#F4F4FC" stroke-width="2" stroke-linecap="round" stroke-linejoin="round"/>
<path d="M34.0812 23.9583V15.1448C34.075 14.3531 33.7654 13.5949 33.2177 13.0302C32.9184 12.7296 32.5588 12.4978 32.1632 12.3504C31.7677 12.203 31.3455 12.1436 30.9253 12.1761C30.1647 12.2515 29.4602 12.6155 28.9532 13.195C28.4461 13.7745 28.1739 14.5267 28.191 15.3011L28.2012 23.9261C27.4486 24.4989 26.8752 25.2798 26.5499 26.1749C26.2246 27.07 26.1613 28.0412 26.3676 28.9719C26.5738 29.9025 27.0409 30.7531 27.7127 31.4212C28.3844 32.0894 29.2323 32.5469 30.1544 32.7386C30.4763 32.8007 30.8032 32.8321 31.1309 32.8323C32.427 32.8326 33.6701 32.3117 34.5875 31.384C35.5049 30.4564 36.0216 29.1977 36.024 27.8844C36.0256 27.1216 35.8506 26.3691 35.5132 25.6873C35.1758 25.0055 34.6853 24.4133 34.0812 23.9583ZM33.5878 30.8958C33.1413 31.2662 32.6191 31.5313 32.0591 31.6718C31.499 31.8123 30.9151 31.8248 30.3497 31.7083C29.5993 31.5569 28.9114 31.1796 28.3759 30.6259C27.8404 30.0721 27.4822 29.3675 27.348 28.6042C27.2144 27.8883 27.2813 27.1488 27.5411 26.4695C27.8009 25.7901 28.2432 25.1981 28.818 24.7604C28.9419 24.6676 29.0426 24.5468 29.1122 24.4075C29.1818 24.2682 29.2184 24.1144 29.2189 23.9583V15.3011C29.2071 14.792 29.3826 14.2967 29.7114 13.9116C30.0401 13.5265 30.4985 13.2792 30.9973 13.2177C31.0448 13.2091 31.093 13.2056 31.1412 13.2073C31.6468 13.2122 32.1303 13.4179 32.4879 13.7802C32.8454 14.1425 33.0484 14.6325 33.0532 15.1448V23.9583C33.0538 24.1144 33.0903 24.2682 33.1599 24.4075C33.2295 24.5468 33.3303 24.6676 33.4541 24.7604C33.9213 25.1147 34.3028 25.572 34.5698 26.0978C34.8367 26.6236 34.9822 27.204 34.995 27.7952C35.0079 28.3863 34.8879 28.9727 34.6441 29.5099C34.4003 30.0471 34.039 30.521 33.5878 30.8958Z" fill="#F4F4FC"/>
<path d="M33.0841 27.8844C33.0841 28.4065 32.8794 28.9073 32.515 29.2765C32.1507 29.6457 31.6565 29.8531 31.1412 29.8531C30.6259 29.8531 30.1318 29.6457 29.7674 29.2765C29.4031 28.9073 29.1984 28.4065 29.1984 27.8844C29.1957 27.4538 29.3347 27.0347 29.5935 26.6932C29.8523 26.3517 30.216 26.1074 30.6272 25.999V15.625C30.6272 15.4869 30.6814 15.3544 30.7778 15.2567C30.8742 15.159 31.0049 15.1042 31.1412 15.1042C31.2775 15.1042 31.4083 15.159 31.5047 15.2567C31.601 15.3544 31.6552 15.4869 31.6552 15.625V26C32.0653 26.1102 32.4278 26.3548 32.6863 26.6957C32.9447 27.0365 33.0846 27.4545 33.0841 27.8844Z" fill="#F4F4FC"/>
</g>
<defs>
<filter id="filter0_d_87_173" x="0" y="0" width="308" height="53" filterUnits="userSpaceOnUse" color-interpolation-filters="sRGB">
<feFlood flood-opacity="0" result="BackgroundImageFix"/>
<feColorMatrix in="SourceAlpha" type="matrix" values="0 0 0 0 0 0 0 0 0 0 0 0 0 0 0 0 0 0 127 0" result="hardAlpha"/>
<feOffset dy="4"/>
<feGaussianBlur stdDeviation="2"/>
<feComposite in2="hardAlpha" operator="out"/>
<feColorMatrix type="matrix" values="0 0 0 0 0 0 0 0 0 0 0 0 0 0 0 0 0 0 0.25 0"/>
<feBlend mode="normal" in2="BackgroundImageFix" result="effect1_dropShadow_87_173"/>
<feBlend mode="normal" in="SourceGraphic" in2="effect1_dropShadow_87_173" result="shape"/>
</filter>
</defs>
</svg>
