<svg width="25" height="25" viewBox="0 0 25 25" fill="none" xmlns="http://www.w3.org/2000/svg">
<path d="M20.8334 21.875C20.8334 18.999 17.1022 16.6667 12.5001 16.6667C7.898 16.6667 4.16675 18.999 4.16675 21.875M12.5001 13.5417C11.1187 13.5417 9.79399 12.9929 8.81723 12.0162C7.84048 11.0394 7.29175 9.71467 7.29175 8.33333C7.29175 6.952 7.84048 5.62724 8.81723 4.65049C9.79399 3.67373 11.1187 3.125 12.5001 3.125C13.8814 3.125 15.2062 3.67373 16.1829 4.65049C17.1597 5.62724 17.7084 6.952 17.7084 8.33333C17.7084 9.71467 17.1597 11.0394 16.1829 12.0162C15.2062 12.9929 13.8814 13.5417 12.5001 13.5417Z" stroke="#F4F4FC" stroke-width="2" stroke-linecap="round" stroke-linejoin="round"/>
</svg>
