<svg width="25" height="25" viewBox="0 0 25 25" fill="none" xmlns="http://www.w3.org/2000/svg">
<path d="M14.5833 18.75H21.875M3.125 18.75H5.20833M5.20833 18.75C5.20833 19.4407 5.4827 20.1031 5.97108 20.5914C6.45945 21.0798 7.12183 21.3542 7.8125 21.3542C8.50317 21.3542 9.16555 21.0798 9.65392 20.5914C10.1423 20.1031 10.4167 19.4407 10.4167 18.75C10.4167 18.0593 10.1423 17.397 9.65392 16.9086C9.16555 16.4202 8.50317 16.1458 7.8125 16.1458C7.12183 16.1458 6.45945 16.4202 5.97108 16.9086C5.4827 17.397 5.20833 18.0593 5.20833 18.75ZM20.8333 12.5H21.875M3.125 12.5H10.4167M13.5417 6.25001H21.875M13.5417 6.25001C13.5417 5.55934 13.2673 4.89696 12.7789 4.40859C12.2905 3.92021 11.6282 3.64584 10.9375 3.64584C10.2468 3.64584 9.58445 3.92021 9.09608 4.40859C8.6077 4.89696 8.33333 5.55934 8.33333 6.25001C8.33333 6.94068 8.6077 7.60306 9.09608 8.09143C9.58445 8.57981 10.2468 8.85418 10.9375 8.85418C11.6282 8.85418 12.2905 8.57981 12.7789 8.09143C13.2673 7.60306 13.5417 6.94068 13.5417 6.25001ZM3.125 6.25001H4.16667M17.1875 15.1042C16.4968 15.1042 15.8345 14.8298 15.3461 14.3414C14.8577 13.8531 14.5833 13.1907 14.5833 12.5C14.5833 11.8093 14.8577 11.147 15.3461 10.6586C15.8345 10.1702 16.4968 9.89584 17.1875 9.89584C17.8782 9.89584 18.5405 10.1702 19.0289 10.6586C19.5173 11.147 19.7917 11.8093 19.7917 12.5C19.7917 13.1907 19.5173 13.8531 19.0289 14.3414C18.5405 14.8298 17.8782 15.1042 17.1875 15.1042Z" stroke="#F4F4FC" stroke-width="2" stroke-linecap="round" stroke-linejoin="round"/>
</svg>
