<svg width="25" height="25" viewBox="0 0 25 25" fill="none" xmlns="http://www.w3.org/2000/svg">
<path d="M20.8334 17.7083V11.9292C20.8334 11.3729 20.8334 11.0948 20.7657 10.8354C20.7058 10.6061 20.6071 10.3888 20.474 10.1927C20.323 9.97084 20.1147 9.78647 19.6949 9.42084L14.6949 5.04584C13.9178 4.36563 13.5282 4.02501 13.0907 3.89584C12.7053 3.78126 12.2949 3.78126 11.9084 3.89584C11.4709 4.02501 11.0834 4.36459 10.3063 5.04376L5.30529 9.42084C4.88654 9.78751 4.67716 9.97084 4.52716 10.1917C4.39362 10.388 4.29463 10.6057 4.23446 10.8354C4.16675 11.0938 4.16675 11.3729 4.16675 11.9292V17.7083C4.16675 18.6792 4.16675 19.1646 4.32508 19.5469C4.42966 19.7997 4.58303 20.0295 4.77641 20.2231C4.9698 20.4166 5.19942 20.5702 5.45216 20.675C5.8355 20.8333 6.32091 20.8333 7.29175 20.8333C8.26258 20.8333 8.748 20.8333 9.13133 20.675C9.38408 20.5702 9.6137 20.4166 9.80708 20.2231C10.0005 20.0295 10.1538 19.7997 10.2584 19.5469C10.4167 19.1646 10.4167 18.6792 10.4167 17.7083V16.6667C10.4167 16.1141 10.6362 15.5842 11.0269 15.1935C11.4176 14.8028 11.9475 14.5833 12.5001 14.5833C13.0526 14.5833 13.5825 14.8028 13.9732 15.1935C14.3639 15.5842 14.5834 16.1141 14.5834 16.6667V17.7083C14.5834 18.6792 14.5834 19.1646 14.7417 19.5469C14.8463 19.7997 14.9997 20.0295 15.1931 20.2231C15.3865 20.4166 15.6161 20.5702 15.8688 20.675C16.2522 20.8333 16.7376 20.8333 17.7084 20.8333C18.6792 20.8333 19.1647 20.8333 19.548 20.675C19.8007 20.5702 20.0304 20.4166 20.2237 20.2231C20.4171 20.0295 20.5705 19.7997 20.6751 19.5469C20.8334 19.1646 20.8334 18.6792 20.8334 17.7083Z" stroke="#F4F4FC" stroke-width="2" stroke-linecap="round" stroke-linejoin="round"/>
</svg>
