<svg width="25" height="25" viewBox="0 0 25 25" fill="none" xmlns="http://www.w3.org/2000/svg">
<path d="M9.375 11.4583V20.8333M9.375 11.4583H4.79167C4.20833 11.4583 3.91667 11.4583 3.69375 11.5719C3.49776 11.6717 3.33841 11.8311 3.23854 12.0271C3.125 12.25 3.125 12.5417 3.125 13.125V20.8333H9.375M9.375 11.4583V5.83332C9.375 5.24999 9.375 4.95832 9.48854 4.73541C9.58841 4.53941 9.74776 4.38006 9.94375 4.2802C10.1667 4.16666 10.4583 4.16666 11.0417 4.16666H13.9583C14.5417 4.16666 14.8333 4.16666 15.0563 4.2802C15.2521 4.3802 15.4104 4.53957 15.5115 4.73541C15.625 4.95832 15.625 5.24999 15.625 5.83332V8.33332M9.375 20.8333H15.625M15.625 8.33332H20.2083C20.7917 8.33332 21.0833 8.33332 21.3073 8.44686C21.5026 8.54691 21.6613 8.70627 21.7604 8.90207C21.875 9.12499 21.875 9.41666 21.875 9.99999V20.8333H15.625M15.625 8.33332V20.8333" stroke="#F4F4FC" stroke-width="2" stroke-linecap="round" stroke-linejoin="round"/>
</svg>
